<?xml version="1.0" standalone="no"?>
<!DOCTYPE svg PUBLIC "-//W3C//DTD SVG 20010904//EN"
 "http://www.w3.org/TR/2001/REC-SVG-20010904/DTD/svg10.dtd">
<svg version="1.0" xmlns="http://www.w3.org/2000/svg"
 width="384.000000pt" height="384.000000pt" viewBox="0 0 384.000000 384.000000"
 preserveAspectRatio="xMidYMid meet">
<metadata>
Created by potrace 1.14, written by Peter Selinger 2001-2017
</metadata>
<g transform="translate(0.000000,384.000000) scale(0.100000,-0.100000)"
fill="#000000" stroke="none">
<path d="M1734 3479 c-11 -3 -29 -5 -41 -3 -13 3 -23 1 -23 -4 0 -5 -10 -8
-22 -7 -13 1 -41 -3 -63 -10 -22 -6 -42 -12 -45 -12 -3 -1 -25 -7 -50 -14 -25
-7 -49 -14 -55 -14 -5 -1 -21 -6 -35 -12 -29 -13 -93 -37 -100 -39 -18 -3 -39
-17 -35 -23 2 -4 -6 -7 -18 -6 -12 1 -30 -7 -39 -18 -10 -11 -18 -17 -18 -13
0 4 -16 -2 -35 -14 -19 -12 -35 -19 -35 -15 0 3 -11 -5 -23 -19 -13 -14 -27
-23 -30 -19 -4 3 -7 0 -7 -7 0 -7 -3 -11 -6 -7 -6 5 -15 0 -48 -30 -8 -7 -16
-9 -20 -6 -3 4 -6 -1 -6 -10 0 -10 -3 -16 -7 -16 -19 3 -36 -2 -30 -8 8 -7
-34 -39 -46 -35 -5 1 -6 -2 -2 -8 3 -5 -1 -10 -10 -10 -9 0 -14 -4 -11 -8 2
-4 -7 -16 -22 -26 -15 -10 -40 -35 -57 -56 -16 -21 -33 -36 -37 -33 -5 2 -8 0
-8 -5 0 -4 -10 -19 -22 -32 -13 -14 -22 -28 -21 -32 2 -5 -2 -8 -7 -8 -6 0
-10 -7 -10 -16 0 -8 -4 -13 -9 -9 -5 3 -12 -4 -16 -15 -3 -11 -11 -20 -16 -20
-5 0 -9 -7 -9 -15 0 -8 -4 -15 -10 -15 -5 0 -10 -7 -10 -15 0 -8 -4 -15 -8
-15 -5 0 -17 -18 -27 -40 -10 -22 -22 -40 -27 -40 -5 0 -7 -4 -4 -9 4 -5 2
-11 -4 -13 -6 -2 -12 -13 -15 -26 -2 -12 -11 -29 -20 -38 -8 -9 -13 -20 -10
-25 4 -5 1 -9 -4 -9 -6 0 -11 -4 -11 -9 0 -5 -5 -22 -12 -38 -6 -15 -12 -31
-13 -35 -2 -5 -4 -11 -5 -15 -1 -5 -2 -11 -1 -15 0 -5 -4 -8 -10 -8 -6 0 -9
-9 -6 -20 3 -11 1 -18 -4 -14 -5 3 -10 -2 -10 -10 -2 -17 -4 -31 -9 -43 -2 -5
-4 -12 -5 -18 -2 -5 -4 -12 -5 -15 -3 -10 -11 -45 -12 -57 -1 -7 -4 -13 -8
-13 -4 0 -6 -10 -5 -22 1 -13 -1 -27 -5 -33 -4 -5 -8 -17 -9 -25 0 -8 -3 -37
-5 -65 -2 -27 -5 -50 -6 -50 -6 0 -5 -214 2 -233 4 -13 5 -21 0 -19 -4 3 -7
-10 -7 -29 0 -19 2 -34 5 -34 3 0 6 -12 6 -27 3 -59 9 -103 15 -103 3 0 5 -10
6 -22 1 -13 4 -34 8 -48 4 -14 8 -32 10 -40 1 -8 5 -22 8 -30 41 -116 51 -146
51 -150 0 -3 10 -26 23 -51 13 -26 23 -52 23 -58 0 -6 4 -11 9 -11 8 0 24 -37
22 -52 0 -3 6 -12 14 -18 8 -7 15 -19 15 -26 0 -8 3 -14 8 -14 4 0 18 -20 32
-45 14 -25 28 -45 32 -45 5 0 8 -5 8 -12 0 -7 9 -21 20 -33 27 -28 61 -68 89
-104 13 -17 31 -31 40 -31 14 0 14 -2 1 -10 -9 -6 -10 -10 -3 -10 7 0 30 -17
51 -37 54 -53 119 -105 150 -123 15 -8 30 -19 34 -24 13 -19 235 -144 268
-151 3 -1 22 -9 44 -18 21 -9 42 -17 46 -17 4 0 21 -7 38 -16 18 -8 36 -13 42
-9 5 3 10 2 10 -2 0 -5 12 -10 26 -11 14 -1 31 -5 37 -9 12 -7 44 -14 82 -17
11 0 22 -4 25 -7 14 -18 341 -28 435 -14 28 4 58 7 68 7 11 -1 15 4 10 11 -5
9 -2 8 9 0 8 -7 18 -10 22 -6 3 4 15 8 26 10 11 2 28 4 38 6 9 1 23 6 30 10 6
5 16 6 21 2 5 -3 12 -1 16 5 4 6 10 8 15 5 5 -3 11 -1 15 4 3 6 12 8 20 4 8
-3 15 1 15 8 0 7 3 9 7 6 3 -4 12 -2 20 4 7 6 13 9 13 5 0 -4 12 0 28 7 15 8
34 12 42 9 8 -2 12 -1 8 3 -4 5 18 18 49 31 31 13 60 29 64 36 5 7 9 10 9 5 0
-12 140 67 152 87 4 6 8 8 8 4 0 -4 24 10 53 32 28 22 56 40 60 40 5 0 5 4 2
10 -3 5 -2 10 4 10 5 0 22 11 37 25 15 14 31 25 36 25 5 0 6 5 3 10 -3 6 -1
10 5 10 7 0 31 21 54 46 22 25 56 61 75 80 18 19 30 34 27 34 -7 0 22 36 46
58 9 9 15 19 12 24 -3 4 2 11 10 14 9 3 16 13 16 21 0 8 6 21 13 28 29 34 37
45 37 55 0 6 9 20 20 32 10 12 17 24 15 29 -3 4 2 15 11 23 8 9 13 16 10 16
-4 0 3 19 15 41 11 23 22 51 25 62 2 11 7 23 12 26 4 3 7 13 7 21 0 8 5 21 12
28 7 8 11 18 8 23 -3 5 -2 17 4 26 5 10 12 35 15 56 3 21 10 46 15 55 4 9 7
29 6 45 -1 15 2 27 6 27 4 0 8 8 8 18 -1 32 10 152 13 159 2 5 3 46 1 93 -5
142 -8 180 -13 180 -3 0 -6 15 -6 33 -1 17 -5 50 -9 72 -4 22 -7 46 -8 53 0 6
-3 12 -7 12 -3 0 -7 8 -8 18 -2 23 -6 39 -22 92 -7 25 -13 48 -12 53 1 4 -3 7
-10 7 -6 0 -9 3 -5 6 3 4 0 19 -8 34 -8 15 -11 30 -8 34 4 3 1 6 -6 6 -7 0 -9
5 -6 10 3 6 2 10 -3 10 -5 0 -12 13 -15 29 -3 16 -13 36 -22 44 -9 9 -16 20
-17 24 -1 13 -11 38 -17 43 -10 8 -42 64 -48 83 -3 9 -9 17 -14 17 -5 0 -9 4
-9 10 0 5 -7 18 -15 27 -8 10 -16 23 -17 28 -1 6 -12 18 -25 28 -13 10 -23 23
-23 28 0 5 -13 22 -30 37 -16 16 -30 35 -30 42 0 7 -2 11 -5 8 -3 -3 -34 22
-68 56 -35 33 -78 72 -96 86 -19 14 -40 31 -47 38 -7 6 -17 12 -23 12 -6 0
-11 5 -11 10 0 6 -5 10 -11 10 -7 0 -19 8 -28 18 -9 9 -23 18 -31 20 -8 2 -16
8 -18 13 -2 5 -10 9 -18 9 -8 0 -17 6 -20 14 -3 8 -12 12 -20 9 -8 -3 -14 0
-14 6 0 6 -6 11 -14 11 -8 0 -22 8 -32 18 -10 9 -18 15 -18 12 -2 -8 -96 33
-96 42 0 4 -6 5 -14 2 -8 -3 -17 0 -21 5 -3 6 -11 9 -16 6 -5 -4 -9 -1 -9 5 0
6 -4 9 -9 6 -5 -4 -12 0 -14 6 -4 10 -6 9 -6 -1 -1 -10 -4 -11 -14 -3 -12 10
-54 22 -84 24 -7 1 -13 4 -13 8 0 4 -6 7 -12 8 -7 0 -29 3 -48 7 -19 4 -43 7
-52 8 -10 1 -18 4 -18 8 0 3 -16 5 -35 4 -19 -2 -35 0 -35 4 0 8 -343 9 -366
0z"/>
</g>
</svg>
