<?xml version="1.0" standalone="no"?>
<!DOCTYPE svg PUBLIC "-//W3C//DTD SVG 20010904//EN"
 "http://www.w3.org/TR/2001/REC-SVG-20010904/DTD/svg10.dtd">
<svg version="1.0" xmlns="http://www.w3.org/2000/svg"
 width="500.000000pt" height="500.000000pt" viewBox="0 0 500.000000 500.000000"
 preserveAspectRatio="xMidYMid meet">
<metadata>
Created by potrace 1.14, written by Peter Selinger 2001-2017
</metadata>
<g transform="translate(0.000000,500.000000) scale(0.100000,-0.100000)"
fill="#000000" stroke="none">
<path d="M2320 4524 c-99 -11 -186 -27 -197 -36 -7 -5 -16 -7 -20 -5 -12 7
-174 -31 -190 -45 -7 -6 -13 -7 -13 -3 0 4 -6 3 -12 -3 -7 -6 -16 -11 -20 -11
-5 -1 -10 -2 -13 -2 -3 -1 -9 -3 -15 -4 -5 -1 -16 -3 -23 -4 -7 0 -22 -8 -33
-17 -10 -8 -13 -13 -7 -9 7 3 21 2 30 -4 15 -8 13 -9 -10 -7 -15 1 -30 5 -33
8 -8 9 -44 -3 -44 -14 0 -5 -4 -7 -9 -4 -5 3 -20 -3 -33 -14 -14 -11 -28 -17
-31 -14 -5 6 -162 -75 -217 -113 -19 -13 -50 -33 -67 -44 -40 -26 -43 -44 -5
-35 20 5 23 4 12 -4 -13 -8 -13 -10 2 -10 25 0 19 -40 -7 -41 -17 -1 -17 -2
-2 -6 9 -2 15 -9 12 -14 -4 -5 -2 -9 3 -9 5 0 12 9 15 20 4 17 11 19 31 14 28
-7 34 4 14 24 -9 9 -9 12 0 12 7 0 12 12 12 26 0 14 -4 23 -10 19 -5 -3 -6
-13 -3 -23 6 -15 5 -16 -12 -2 -17 14 -17 13 -10 -9 5 -17 4 -22 -6 -19 -8 3
-14 11 -14 18 0 7 -9 17 -20 21 -18 8 -17 8 5 6 14 -1 25 3 25 10 0 6 4 15 9
20 5 5 6 2 1 -6 -5 -9 -3 -12 6 -9 8 3 13 11 12 17 -4 13 3 14 26 2 20 -11 50
2 32 13 -13 9 -5 26 12 26 7 0 6 -4 -3 -10 -8 -5 -10 -10 -5 -10 15 1 45 26
38 33 -6 7 46 32 60 28 5 -1 6 3 2 8 -3 6 6 13 20 17 14 3 22 11 18 17 -3 6
-1 7 6 3 6 -4 17 -3 24 2 7 5 24 12 40 14 21 4 27 1 27 -13 0 -10 5 -21 10
-24 6 -4 8 -9 6 -13 -2 -4 2 -13 10 -20 11 -10 13 -7 7 20 -3 18 -10 36 -16
39 -5 4 3 9 17 13 14 3 26 10 26 14 0 9 90 8 112 -2 10 -4 23 -6 30 -3 7 3 2
6 -12 6 -19 1 -22 3 -10 10 8 6 17 8 21 5 12 -7 4 25 -9 38 -9 9 -12 9 -13 -2
-1 -8 -1 -18 0 -22 0 -5 -3 -8 -8 -8 -14 0 -9 39 5 44 7 3 20 -2 31 -9 26 -20
60 -19 60 3 0 9 -5 21 -11 25 -7 6 -5 7 4 4 9 -3 24 1 35 9 10 8 26 14 34 14
9 -1 1 -7 -16 -15 -18 -8 -33 -20 -32 -27 0 -10 2 -10 6 0 2 6 13 12 23 12 10
0 22 5 25 10 4 6 10 8 15 5 5 -3 22 2 36 12 20 13 29 14 32 5 2 -6 9 -12 14
-12 6 0 8 3 5 7 -4 3 5 12 19 20 30 15 58 17 31 2 -9 -6 -15 -14 -12 -19 3 -5
-6 -12 -20 -16 -27 -7 -33 -19 -12 -27 7 -3 4 -6 -6 -6 -11 -1 -21 7 -24 18
-3 13 -11 17 -24 14 -15 -4 -17 -8 -8 -19 9 -11 8 -14 -5 -14 -10 0 -14 5 -11
10 3 6 1 10 -4 10 -6 0 -11 -10 -11 -22 0 -17 -3 -19 -9 -9 -7 10 -13 11 -30
2 -11 -7 -21 -17 -21 -22 0 -7 -14 -10 -35 -7 -38 4 -50 -16 -16 -27 26 -8 71
4 68 19 -1 6 5 11 14 11 9 0 23 5 30 11 24 19 96 5 114 -22 17 -27 35 -32 35
-9 0 8 9 15 21 15 26 0 16 -16 -23 -36 -16 -9 -27 -11 -24 -5 10 16 -10 13
-23 -3 -9 -11 -9 -15 1 -19 7 -3 2 -4 -12 -2 -14 2 -29 4 -33 4 -5 1 -5 6 -2
11 3 6 1 10 -6 10 -8 0 -7 5 2 17 12 14 12 16 -1 11 -8 -3 -23 -1 -33 4 -16 8
-17 7 -7 -12 6 -11 8 -30 4 -42 -4 -15 -3 -18 6 -13 9 6 9 3 1 -12 -10 -20 -6
-33 11 -33 5 0 6 5 2 12 -4 7 -3 8 4 4 12 -7 5 -36 -9 -36 -9 0 -28 31 -26 42
1 3 0 9 -3 12 -3 3 -7 -4 -7 -16 -1 -11 4 -27 12 -35 8 -7 12 -20 9 -28 -4 -8
-1 -15 5 -15 7 0 14 6 17 14 3 8 13 17 22 21 10 4 4 -7 -12 -24 -21 -21 -32
-27 -37 -19 -4 6 -14 13 -23 14 -13 2 -14 -2 -5 -18 10 -19 9 -20 -15 -14 -15
4 -26 2 -26 -4 0 -5 7 -10 15 -10 17 0 20 -16 6 -25 -16 -9 -35 35 -22 48 19
19 12 23 -34 24 -39 1 -44 -1 -34 -13 9 -10 15 -12 23 -4 16 16 30 12 16 -5
-7 -8 -9 -15 -4 -15 4 0 3 -5 -3 -11 -8 -8 -8 -18 -1 -35 12 -25 -5 -59 -23
-48 -14 8 -10 -3 7 -20 8 -9 11 -16 5 -16 -5 0 -13 5 -16 10 -3 6 -14 10 -23
9 -14 0 -14 -2 2 -8 20 -8 32 -41 15 -41 -5 0 -9 -9 -9 -20 0 -13 7 -20 19
-20 14 0 19 6 16 20 -2 11 8 39 21 62 16 27 23 34 19 18 -4 -14 -8 -55 -8 -92
0 -38 -4 -69 -9 -69 -19 -3 -24 -5 -35 -12 -8 -5 -13 -4 -13 2 0 15 -27 14
-36 -1 -4 -6 1 -17 12 -25 17 -12 21 -11 37 9 l19 22 -4 -29 c-1 -17 -8 -29
-14 -28 -7 1 -9 -8 -6 -22 8 -43 28 -29 43 29 7 25 8 23 4 -12 -4 -27 -2 -41
4 -38 6 4 8 -8 5 -31 -3 -27 -2 -32 4 -18 8 18 9 17 14 -7 3 -18 1 -26 -6 -22
-6 3 -3 -1 8 -10 20 -16 14 -36 -11 -36 -9 0 -25 -7 -35 -17 -11 -9 -18 -11
-18 -5 0 7 5 12 12 12 6 0 9 3 5 6 -3 3 -15 -1 -27 -9 -15 -11 -18 -16 -8 -20
7 -3 3 -4 -10 -4 -12 1 -21 6 -18 13 6 15 -6 32 -24 34 -44 7 -53 -11 -20 -40
20 -18 20 -18 -4 -22 -14 -3 -27 0 -30 6 -2 6 -5 4 -5 -5 -1 -9 -9 -20 -18
-23 -40 -14 -59 -32 -59 -56 0 -14 -6 -24 -12 -23 -15 4 -53 -33 -44 -42 4 -4
2 -6 -3 -5 -6 1 -21 2 -34 1 -23 -1 -23 -2 -7 -14 17 -13 17 -14 0 -28 -16
-13 -17 -12 -10 6 6 16 5 18 -5 8 -17 -17 -34 -17 -20 0 8 11 5 16 -14 25 -15
7 -25 8 -25 2 0 -6 5 -10 10 -10 6 0 10 -7 10 -16 0 -9 -5 -12 -11 -8 -7 4
-10 1 -7 -7 3 -8 11 -13 17 -12 13 3 15 -10 4 -21 -5 -4 -8 -13 -8 -19 0 -7
-8 -11 -18 -9 -13 2 -17 -2 -15 -15 2 -10 -3 -18 -12 -18 -8 0 -15 -7 -15 -15
0 -9 -9 -15 -22 -14 -14 1 -20 -3 -16 -12 3 -8 10 -11 16 -7 6 4 7 1 2 -7 -6
-10 -15 -5 -37 19 -15 17 -28 36 -28 41 0 16 32 12 44 -6 10 -13 14 -14 23 -2
17 19 -6 62 -35 66 -16 2 -25 -3 -31 -21 -6 -14 -15 -28 -20 -32 -15 -9 -14
-35 2 -35 16 0 57 -41 57 -57 0 -5 -9 -18 -20 -28 -11 -10 -17 -22 -14 -26 3
-5 0 -9 -6 -9 -7 0 -9 7 -6 16 5 14 4 15 -9 4 -12 -10 -15 -10 -15 3 0 9 7 14
18 12 24 -4 37 6 21 16 -7 4 -10 11 -6 16 5 4 13 1 18 -7 9 -12 10 -12 5 3 -3
10 -6 21 -6 23 0 13 -20 1 -25 -16 -4 -11 -11 -18 -16 -15 -5 4 -9 1 -9 -4 0
-6 -11 -11 -25 -11 -22 0 -24 -4 -23 -35 1 -33 2 -34 19 -19 13 12 22 13 36 5
11 -7 13 -11 4 -11 -7 0 -11 -6 -8 -14 4 -11 1 -13 -10 -9 -11 4 -14 3 -9 -6
12 -19 -16 -8 -41 16 -26 25 -53 21 -53 -7 0 -11 -4 -22 -10 -25 -17 -11 -12
-63 7 -67 15 -3 15 -5 -2 -21 -11 -11 -27 -17 -41 -14 -13 2 -23 1 -22 -2 2
-23 -6 -31 -31 -31 -18 0 -31 6 -35 16 -5 14 -4 15 9 4 9 -7 18 -10 22 -6 3 3
1 6 -6 6 -7 0 -9 5 -5 12 4 6 3 8 -3 5 -6 -4 -23 3 -39 16 -16 12 -31 20 -34
19 -3 -2 -14 -8 -25 -14 l-20 -9 20 17 c19 16 19 16 -16 11 -20 -3 -41 -1 -47
5 -6 6 -23 7 -44 2 -18 -4 -40 -8 -48 -8 -8 -1 -14 -7 -12 -15 2 -9 -8 -6 -32
8 -21 13 -37 18 -41 12 -3 -6 -19 -8 -35 -4 -39 7 -38 -8 0 -30 16 -10 30 -15
30 -12 0 3 9 1 20 -5 11 -6 18 -15 15 -21 -4 -5 9 -9 28 -9 30 0 34 3 30 19
-5 20 27 38 46 27 5 -4 11 -1 13 4 6 19 62 17 77 -3 17 -24 10 -29 -41 -32
-24 -1 -56 -7 -71 -13 -16 -7 -49 -12 -75 -12 -30 0 -42 -3 -33 -9 7 -5 23 -7
35 -4 19 3 19 3 -2 -7 -17 -7 -31 -6 -54 6 -16 8 -36 13 -43 10 -15 -5 -16
-46 -2 -46 5 0 5 9 2 20 -7 24 2 25 29 5 17 -13 18 -15 3 -15 -9 0 -17 -4 -17
-10 0 -5 -9 -10 -21 -10 -12 0 -17 -4 -13 -11 4 -7 0 -9 -14 -5 -12 4 -23 2
-28 -5 -5 -8 -3 -9 5 -4 10 6 11 3 2 -14 -7 -11 -17 -21 -23 -21 -7 0 -6 5 2
15 22 26 -5 16 -28 -10 -13 -14 -27 -23 -32 -20 -14 9 -12 49 3 64 10 10 9 11
-5 6 -10 -4 -18 -11 -18 -17 0 -5 -5 -6 -11 -3 -6 4 -13 -3 -16 -15 -4 -13
-11 -19 -20 -16 -8 3 -17 6 -19 6 -10 0 -3 29 9 33 6 3 4 6 -7 6 -17 1 -18 -4
-13 -48 4 -36 2 -51 -8 -54 -7 -3 -16 -3 -19 0 -9 9 -7 25 2 19 4 -2 7 23 7
57 -1 70 3 89 16 81 17 -10 9 43 -10 60 -18 16 -19 15 -29 -26 -6 -23 -8 -46
-6 -50 3 -5 0 -15 -6 -23 -7 -8 -13 -33 -13 -55 -1 -22 -5 -40 -8 -40 -10 0
-29 -212 -29 -330 0 -126 10 -233 36 -382 18 -105 30 -127 28 -52 -1 30 1 42
7 33 7 -11 9 -10 9 4 0 13 6 17 23 15 18 -2 23 2 25 26 4 37 -19 116 -34 116
-18 0 -24 38 -8 51 11 9 15 8 20 -4 6 -15 12 -43 13 -62 1 -5 5 -4 10 4 5 8
11 -11 16 -54 4 -38 3 -71 -2 -76 -11 -11 -4 -69 8 -69 5 0 9 -11 9 -24 0 -29
15 -42 24 -21 3 8 -2 27 -11 43 -21 37 -12 58 26 67 17 4 31 11 31 16 0 14
-28 11 -33 -3 -4 -10 -8 -9 -16 2 -6 8 -10 20 -10 25 0 6 3 4 6 -3 2 -6 9 -10
14 -6 5 3 3 15 -6 27 -8 12 -15 28 -14 37 0 13 1 13 6 0 7 -19 54 -70 65 -70
13 0 9 17 -8 34 -8 9 -11 16 -5 16 14 0 32 -36 26 -52 -5 -13 25 -46 55 -62 8
-4 26 -14 40 -22 l25 -16 -25 6 c-72 18 -83 19 -76 8 4 -7 14 -12 22 -12 8 0
14 -4 14 -9 0 -4 11 -6 24 -4 18 4 27 -1 36 -17 11 -21 10 -22 -11 -17 -13 3
-29 1 -36 -5 -10 -8 -12 -7 -8 4 3 8 -1 20 -9 27 -12 10 -16 8 -21 -9 -9 -28
-5 -31 63 -52 70 -22 92 -22 92 -3 0 13 26 21 53 16 5 -1 6 3 2 9 -9 15 -51
12 -65 -5 -16 -19 -36 -19 -44 0 -3 10 1 15 12 15 9 0 24 5 32 11 11 8 6 9
-20 5 -31 -5 -33 -5 -12 6 17 9 28 8 46 -1 13 -8 64 -14 118 -14 73 -2 94 -5
90 -15 -2 -8 -13 -10 -26 -7 -14 4 -17 3 -8 -3 8 -6 -14 -9 -62 -9 -41 -1 -82
-6 -92 -11 -13 -7 -6 -9 27 -7 24 2 89 6 144 9 74 5 96 4 85 -4 -11 -9 -2 -10
35 -5 28 4 53 12 57 18 12 20 20 -1 20 -55 0 -29 -5 -54 -11 -56 -14 -5 -15
-62 0 -62 6 0 9 12 7 27 -2 20 2 29 14 31 21 4 48 -20 48 -42 0 -11 9 -16 30
-16 19 0 28 4 25 12 -3 7 0 20 5 28 9 13 11 13 20 0 5 -8 7 -21 5 -29 -5 -12
-3 -12 12 0 13 11 12 6 -5 -22 -23 -38 -30 -75 -11 -64 6 4 8 14 5 22 -4 9 -2
11 6 7 7 -4 8 -3 4 5 -9 13 10 41 28 41 6 0 5 -4 -3 -9 -7 -5 -11 -13 -7 -19
3 -6 2 -13 -4 -17 -5 -3 -10 -11 -10 -17 0 -17 30 12 31 31 0 13 2 13 6 1 4
-8 16 -22 27 -32 12 -9 17 -17 12 -18 -5 0 -2 -7 5 -16 27 -33 21 -49 -19 -50
-20 -1 -30 1 -22 3 9 2 21 12 28 23 10 17 10 20 -3 20 -9 0 -29 7 -45 15 -29
15 -40 9 -21 -11 5 -5 11 -20 13 -34 3 -24 6 -25 65 -24 37 0 59 -4 56 -10 -4
-5 1 -7 11 -3 16 6 16 5 1 -15 -8 -13 -15 -26 -15 -30 0 -13 28 -9 43 7 13 13
16 13 21 -1 3 -8 2 -12 -4 -9 -6 3 -10 0 -10 -7 0 -8 10 -14 23 -14 12 1 23
-3 25 -9 2 -5 14 -16 28 -23 13 -7 24 -17 24 -23 0 -6 5 -7 12 -3 7 4 8 3 4
-4 -4 -6 -12 -10 -19 -8 -7 1 -9 1 -4 -1 4 -3 4 -10 1 -16 -5 -8 -2 -8 7 1 20
19 31 14 24 -10 -7 -23 -7 -23 8 -3 13 16 18 18 29 7 11 -11 10 -12 -7 -7 -20
6 -20 6 -1 -9 10 -8 23 -13 27 -10 11 6 49 -14 49 -26 0 -5 -11 -12 -25 -16
-13 -3 -29 -12 -36 -20 -6 -8 -20 -14 -30 -14 -25 0 -25 -36 0 -43 15 -3 18
-1 14 11 -5 12 -1 14 15 10 13 -4 20 -2 19 6 -1 6 7 11 18 11 11 0 30 6 43 13
29 16 79 7 94 -18 7 -11 19 -16 32 -13 15 4 17 2 8 -5 -11 -7 -9 -10 7 -15 12
-3 19 -1 15 4 -3 5 -1 9 5 9 5 0 13 -9 16 -20 3 -11 11 -20 16 -20 5 0 9 -4 9
-10 0 -5 -7 -10 -15 -10 -8 0 -15 5 -15 10 0 20 -18 9 -22 -13 -7 -35 1 -50
18 -36 17 14 19 -2 2 -19 -9 -9 -13 -51 -13 -132 0 -92 -3 -121 -14 -125 -10
-4 -12 3 -6 31 4 26 3 34 -5 29 -8 -5 -10 -27 -6 -69 4 -44 3 -55 -4 -39 -5
13 -14 23 -19 23 -6 0 -8 8 -4 18 3 9 3 14 -1 11 -15 -14 -15 -70 -1 -76 9 -3
15 -18 15 -34 0 -16 5 -29 10 -29 6 0 10 9 10 19 0 11 9 26 20 34 11 8 17 17
12 22 -4 5 -1 5 6 1 6 -4 12 -13 12 -21 0 -8 9 -29 20 -48 11 -19 18 -42 14
-51 -3 -9 -2 -16 4 -16 6 0 12 5 14 11 2 6 3 -9 3 -33 -1 -24 -4 -49 -8 -55
-4 -6 0 -14 9 -17 25 -10 29 -7 29 19 0 14 -3 25 -7 25 -5 0 -8 12 -8 28 l0
27 15 -29 c8 -15 12 -32 9 -37 -3 -6 0 -16 6 -24 14 -17 35 -21 25 -5 -3 6 -2
10 2 10 19 0 33 -25 33 -58 0 -31 2 -34 23 -27 48 15 67 17 67 8 0 -11 -44
-33 -65 -33 -8 0 -17 -5 -21 -12 -5 -8 -2 -9 9 -5 10 3 17 2 17 -4 0 -6 5 -7
10 -4 6 3 10 1 10 -4 0 -6 -4 -11 -9 -11 -5 0 -13 -9 -16 -20 -8 -24 -24 -18
-20 8 1 9 0 12 -2 6 -2 -7 -14 -15 -26 -18 -31 -8 -39 -7 -32 4 6 9 -74 16
-115 10 -8 -1 -4 7 10 19 l25 21 -35 -6 -35 -5 31 14 c30 14 31 16 25 69 -1 4
-20 6 -43 3 -30 -3 -37 -1 -23 5 15 6 10 8 -20 5 -22 -1 -60 4 -85 11 -25 8
-46 14 -47 14 -2 0 -3 -14 -3 -30 0 -24 6 -33 26 -40 32 -12 34 -12 34 0 0 6
-12 10 -26 10 -28 0 -25 15 4 22 22 6 74 -32 54 -39 -10 -4 -10 -8 -1 -19 14
-17 -2 -19 -19 -2 -10 10 -16 9 -29 -4 -15 -16 -15 -17 7 -11 15 4 21 2 17 -4
-5 -7 1 -9 15 -5 13 3 19 1 15 -5 -4 -6 4 -13 18 -15 14 -3 25 -1 25 3 0 5 10
9 23 8 21 0 21 -1 2 -8 l-20 -8 20 -6 c33 -10 134 -27 249 -42 117 -16 265
-19 389 -9 63 6 75 9 66 20 -6 8 -21 14 -33 15 -20 0 -20 1 -2 8 31 12 3 22
-54 20 -44 -2 -85 8 -49 13 8 1 -20 5 -61 8 l-75 7 93 0 c56 0 98 5 105 12 6
6 18 11 26 11 13 0 13 -2 3 -9 -10 -6 -9 -10 7 -14 14 -3 26 2 36 16 8 12 15
16 15 9 0 -6 11 -11 24 -10 14 1 24 7 23 13 -1 5 9 10 23 11 14 0 31 3 38 8 7
4 19 1 27 -8 11 -11 12 -16 2 -20 -6 -4 -1 -4 12 -2 l24 5 -22 -22 c-21 -21
-23 -21 -35 -4 -17 22 -56 23 -56 1 0 -10 6 -14 15 -10 8 3 15 1 15 -4 0 -6
-4 -10 -10 -10 -5 0 -6 -7 -3 -17 4 -11 3 -14 -6 -9 -6 4 -18 3 -25 -3 -9 -8
-19 -4 -36 16 -15 18 -25 23 -28 15 -5 -15 17 -44 28 -37 5 3 10 0 12 -7 4
-12 54 -5 221 33 88 21 108 37 69 58 -14 7 -19 6 -19 -4 0 -8 5 -12 11 -9 6 3
2 -2 -8 -10 -23 -19 -32 -20 -41 -6 -3 6 1 10 9 10 16 0 21 12 10 23 -4 3 -13
0 -21 -8 -8 -8 -19 -15 -26 -15 -6 0 -2 7 9 16 15 12 16 15 2 10 -9 -2 -22 2
-29 10 -7 8 -20 12 -30 9 -25 -8 -24 11 0 25 28 14 64 13 55 -3 -4 -6 -4 -9 1
-5 4 4 15 2 23 -5 13 -10 14 -9 8 1 -7 11 -4 11 12 1 12 -7 25 -10 29 -6 7 7
-6 20 -32 31 -6 3 -3 9 5 15 13 9 12 11 -3 11 -10 0 -16 4 -13 9 10 16 -38 22
-50 6 -6 -8 -16 -15 -22 -15 -6 0 -13 -6 -15 -12 -4 -9 -6 -10 -6 -1 -1 6 6
19 15 28 9 9 14 19 11 22 -6 6 -41 -25 -43 -39 -1 -4 -3 -11 -4 -15 -1 -5 -2
-16 -1 -25 3 -24 -1 -23 -35 8 l-29 26 30 -7 c24 -5 28 -4 18 6 -10 10 -6 19
20 45 39 38 52 55 59 74 3 11 6 10 11 -3 3 -9 2 -17 -3 -17 -6 0 -10 -9 -10
-20 0 -18 1 -18 30 -2 31 18 40 42 16 42 -17 0 -29 28 -19 43 13 20 33 81 33
101 0 40 12 5 15 -43 2 -39 0 -48 -11 -44 -9 3 -14 -2 -14 -15 0 -15 6 -20 24
-18 23 1 24 4 21 46 -2 25 -7 54 -11 64 -5 14 -4 17 4 12 12 -7 12 18 -4 165
-4 36 -2 59 5 63 17 11 13 36 -5 36 -13 0 -15 7 -10 30 3 17 1 30 -4 30 -6 0
-10 -5 -10 -12 0 -7 -9 5 -20 27 -24 48 -25 51 -3 34 15 -12 16 -12 10 3 -4
12 -2 15 9 11 17 -6 18 -20 3 -25 -7 -2 -10 -11 -7 -18 4 -11 9 -7 19 13 11
24 11 30 -2 39 -11 8 -11 9 3 4 10 -3 20 -1 23 4 4 6 14 10 23 9 12 0 11 -3
-5 -9 -13 -5 -23 -11 -23 -14 0 -8 45 7 61 21 14 12 18 12 22 1 3 -9 15 -2 34
20 16 18 36 34 44 36 35 6 59 18 53 28 -4 7 -9 6 -14 -2 -6 -10 -23 -16 -52
-19 -4 -1 -17 -12 -30 -25 -17 -18 -28 -22 -43 -16 -19 8 -19 9 2 9 12 1 25 6
29 12 3 6 26 20 51 31 24 10 41 23 38 27 -2 5 3 8 13 7 9 0 16 4 15 10 -1 6 8
9 21 7 13 -3 27 0 30 6 5 7 1 8 -11 4 -10 -3 -16 -4 -13 -2 40 33 52 42 46 32
-4 -8 -1 -13 8 -13 9 0 13 8 12 24 -3 22 -1 23 24 14 22 -7 26 -14 22 -36 -4
-24 -3 -25 9 -10 8 9 25 15 39 14 14 -1 30 2 37 6 8 7 10 3 6 -10 -6 -24 14
-39 30 -23 8 8 8 17 1 29 -6 9 -9 32 -8 49 1 18 -2 33 -7 33 -14 0 -10 17 7
35 28 28 5 30 -24 2 -44 -42 -58 -32 -18 13 20 22 36 45 36 51 0 6 8 8 19 4
15 -4 19 -1 17 12 -2 10 7 31 20 46 13 16 22 33 19 37 -3 5 0 12 6 16 8 4 9 3
5 -4 -4 -7 -2 -12 5 -12 8 0 7 -5 -2 -17 -12 -14 -12 -16 1 -11 10 3 14 15 12
36 -4 43 15 77 33 62 29 -24 44 12 49 112 0 14 4 24 9 21 4 -2 6 -12 5 -20 -2
-9 2 -18 9 -20 12 -4 11 21 -2 63 -4 13 -2 25 6 30 9 5 11 2 6 -9 -4 -10 1
-33 11 -51 13 -27 23 -34 45 -34 26 1 28 4 25 37 -3 31 0 36 19 37 12 1 21 -4
20 -10 -1 -7 27 -10 86 -9 79 1 86 -1 75 -15 -7 -9 -8 -13 -2 -9 6 4 19 -2 29
-13 22 -24 85 -28 85 -5 0 8 9 15 19 15 11 0 23 5 26 10 9 15 25 2 25 -21 0
-14 7 -19 25 -19 29 0 33 15 8 29 -14 8 -15 12 -4 25 11 13 11 16 0 18 -8 0
-18 2 -24 3 -5 2 -15 3 -22 4 -7 1 -10 8 -6 19 5 14 3 15 -8 5 -7 -7 -20 -13
-28 -13 -10 1 -6 6 10 15 14 7 34 12 45 11 26 -5 42 6 20 14 -15 5 -13 8 11
20 15 8 30 18 33 22 3 4 19 1 35 -7 17 -7 38 -16 48 -19 9 -3 17 -15 17 -28
l0 -22 -15 21 c-8 12 -23 21 -33 21 -9 0 -29 2 -44 5 -15 3 -30 1 -33 -4 -4
-5 -1 -9 5 -9 16 0 -15 -30 -32 -30 -8 0 -6 -5 5 -11 15 -9 25 -6 49 17 17 16
28 23 24 17 -4 -8 -1 -13 8 -13 9 0 16 5 16 10 0 6 5 10 12 10 6 0 3 -9 -7
-20 -12 -14 -14 -20 -5 -20 34 0 56 -79 23 -81 -10 0 -13 -3 -7 -5 6 -2 8 -19
6 -36 -3 -21 -1 -29 7 -24 6 4 11 3 11 -2 0 -6 -7 -12 -15 -16 -20 -7 -19 -33
1 -44 15 -8 15 -10 0 -15 -20 -8 -21 -43 -1 -51 20 -7 19 -36 -2 -52 -15 -11
-16 -16 -5 -33 14 -24 15 -31 5 -30 -29 5 -36 -2 -20 -19 15 -17 15 -18 -10
-17 -14 0 -28 -6 -30 -13 -3 -8 1 -10 12 -6 13 5 16 2 13 -12 -2 -10 -10 -18
-16 -17 -17 4 -15 -14 2 -20 12 -5 19 6 25 38 1 3 10 14 21 25 17 17 21 29 20
55 -1 3 6 13 15 21 8 9 15 23 15 33 0 9 4 21 9 27 14 15 52 125 46 134 -3 5
-1 11 5 15 9 6 29 67 35 109 1 12 5 28 9 36 29 71 39 251 14 266 -8 5 -2 -61
8 -93 7 -25 -27 -13 -36 12 -5 14 -13 25 -16 25 -4 0 -5 -3 -1 -6 3 -4 0 -21
-7 -39 -12 -28 -12 -37 -1 -59 8 -14 11 -26 7 -26 -4 0 1 -5 11 -11 18 -11 23
-54 7 -64 -5 -3 -10 -18 -10 -33 0 -35 -11 -50 -33 -46 -13 2 -17 -2 -13 -12
3 -9 1 -24 -4 -35 -7 -13 -7 -19 0 -19 5 0 10 5 10 10 0 6 5 10 12 10 6 0 4
-7 -5 -18 -10 -10 -14 -22 -10 -26 4 -4 0 -4 -10 0 -9 3 -15 10 -12 14 3 4 -3
14 -12 21 -15 13 -15 11 -9 -16 15 -59 18 -117 7 -128 -8 -8 -11 -7 -11 4 0
12 -2 12 -11 -1 -9 -12 -10 -12 -5 3 3 10 6 24 6 30 0 7 5 6 11 -3 8 -12 10
-12 7 5 -2 11 -13 24 -26 30 -12 5 -22 15 -22 22 0 16 12 17 28 1 14 -14 15
-4 3 39 -6 21 -5 39 3 55 8 15 10 32 4 47 -11 31 1 74 18 67 21 -8 17 11 -3
19 -17 7 -16 8 2 16 18 9 18 9 -2 5 -13 -2 -23 -1 -23 4 0 4 -11 5 -24 3 -30
-6 -38 7 -20 32 14 19 16 19 25 2 8 -14 14 -16 25 -6 7 6 12 15 9 19 -3 4 5
10 16 13 16 4 20 11 16 26 -3 12 -1 23 4 26 4 3 5 13 2 22 -4 11 -2 14 8 11
25 -8 51 37 44 76 -5 25 -3 36 8 42 24 14 31 58 13 73 -16 13 -22 51 -10 51 4
0 13 -8 20 -17 12 -16 13 -15 14 10 0 15 -4 27 -10 27 -5 0 -11 12 -11 28 l-1
27 -8 -30 -8 -30 -1 33 c0 18 6 40 14 48 8 9 15 33 15 54 0 29 -4 39 -20 43
-11 3 -20 1 -20 -3 0 -5 8 -11 18 -13 16 -4 16 -5 0 -6 -10 0 -18 -5 -18 -10
0 -5 -9 -11 -19 -14 -25 -6 -41 46 -26 86 4 10 3 17 -4 17 -6 0 -11 -8 -12
-17 0 -15 -2 -15 -9 2 -5 13 -3 24 6 31 17 13 18 34 3 34 -7 0 -9 9 -6 21 4
15 2 19 -10 15 -8 -3 -17 -6 -19 -6 -3 0 0 -9 6 -21 14 -25 3 -41 -11 -17 -5
9 -16 24 -24 32 -8 8 -15 19 -15 24 0 6 -7 12 -15 16 -8 3 -15 12 -15 21 0 27
21 16 36 -21 8 -19 20 -34 26 -32 21 7 19 25 -2 31 -24 6 -24 44 0 39 11 -3
11 0 0 12 -16 20 -34 20 -50 1 -19 -23 -38 -18 -33 9 3 16 -2 28 -16 38 -11 8
-18 18 -13 23 4 4 -1 5 -11 2 -11 -4 -25 1 -38 14 -11 11 -27 18 -34 15 -8 -3
-17 -1 -20 4 -4 6 -12 10 -18 10 -8 0 -8 -3 1 -9 10 -6 4 -10 -19 -15 -18 -3
-34 -4 -37 -2 -9 9 11 27 24 22 8 -3 14 -2 14 3 0 15 63 19 78 5 7 -8 22 -14
32 -14 10 0 20 -7 24 -15 8 -21 54 -37 73 -26 13 7 12 10 -6 23 -22 15 -21 44
2 45 22 1 42 8 50 18 5 6 6 2 3 -8 -3 -10 -6 -22 -6 -27 0 -4 -10 -10 -21 -13
-21 -6 -21 -6 -4 -24 13 -13 20 -14 23 -5 4 14 22 7 22 -9 0 -6 -4 -7 -10 -4
-5 3 -10 2 -10 -4 0 -5 5 -13 10 -16 6 -4 10 -12 9 -18 -4 -31 2 -58 11 -52 5
3 7 0 4 -8 -3 -8 1 -17 10 -20 21 -8 28 19 10 38 -10 9 -11 15 -4 15 7 0 10 6
7 14 -3 8 -1 16 4 18 6 2 4 18 -6 40 -8 21 -15 51 -15 68 0 16 -5 30 -11 30
-6 0 -8 8 -5 18 3 9 1 24 -4 32 -8 12 -11 13 -19 1 -7 -11 -9 -11 -14 0 -3 9
-6 10 -6 2 -1 -6 4 -15 9 -18 6 -3 10 -13 10 -21 0 -20 -20 -17 -21 4 0 14 -2
14 -7 2 -4 -9 -21 -15 -42 -15 -32 0 -35 -2 -32 -27 4 -33 -13 -37 -28 -8 -8
15 -17 19 -32 14 -13 -4 -18 -2 -14 4 10 16 -17 20 -32 5 -7 -7 -31 -13 -52
-13 -28 0 -42 -5 -49 -19 -6 -10 -9 -20 -7 -22 3 -2 -9 -5 -25 -6 -29 -2 -29
-2 -12 23 10 15 22 23 31 19 13 -5 13 -3 1 12 -13 15 -12 16 10 10 16 -4 21
-3 14 4 -14 14 -49 7 -46 -9 4 -17 -64 -26 -113 -15 -34 8 -44 7 -44 -2 0 -7
8 -12 17 -11 10 0 19 -7 21 -16 2 -13 -3 -18 -17 -18 -12 0 -21 6 -21 15 0 20
-6 19 -29 -4 -18 -18 -18 -20 -3 -24 9 -2 0 -4 -21 -3 -31 1 -37 4 -33 19 2 9
0 15 -4 12 -5 -3 -10 1 -13 7 -2 7 -4 1 -3 -14 1 -27 8 -33 31 -28 6 1 6 -3
-1 -10 -13 -13 -48 -1 -52 18 -1 8 1 11 5 9 5 -3 9 12 9 34 1 21 -2 39 -7 39
-5 0 -9 -5 -9 -11 0 -5 -4 -7 -10 -4 -13 8 -13 -1 1 -28 10 -21 10 -21 -5 -3
-19 23 -20 32 -5 41 7 5 6 14 -4 28 -7 12 -13 41 -11 64 1 24 -2 41 -6 38 -4
-3 -7 -27 -6 -54 1 -28 -1 -48 -6 -45 -4 3 -8 13 -8 23 0 10 -9 26 -20 36 -11
10 -18 20 -15 23 2 3 14 -6 25 -19 l21 -24 -17 28 c-15 24 -15 30 -3 37 7 5
10 12 7 16 -4 3 -15 -1 -24 -11 -16 -16 -18 -15 -40 12 -19 24 -21 30 -8 44
19 22 18 29 -6 24 -15 -3 -27 5 -42 28 -11 18 -18 24 -14 15 9 -28 -1 -21 -25
19 -32 51 -34 73 -8 66 17 -5 20 -11 15 -34 -6 -32 7 -46 26 -26 10 12 15 11
32 -5 11 -10 25 -18 30 -18 6 0 16 -11 23 -25 6 -14 7 -23 2 -19 -13 7 -11
-10 2 -23 8 -8 8 -17 -1 -33 -6 -12 -9 -24 -6 -28 3 -3 6 -1 6 5 0 17 31 25
46 12 11 -9 14 -7 14 9 0 11 -7 25 -15 32 -21 17 -19 37 5 57 11 10 20 29 20
44 0 32 -23 41 -95 33 -36 -3 -55 0 -70 11 -14 11 -16 18 -8 23 6 4 13 22 15
41 3 30 -1 37 -27 50 -16 9 -32 19 -35 22 -3 3 -13 8 -22 12 -14 5 -18 1 -18
-15 0 -12 3 -19 6 -16 6 7 74 -53 74 -65 0 -5 -4 -5 -10 -2 -5 3 -10 -1 -10
-9 0 -9 -9 -16 -20 -16 -11 0 -20 -5 -20 -12 0 -19 -14 1 -16 25 -2 12 0 16 2
10 3 -7 10 -13 16 -13 6 0 6 6 -2 15 -9 11 -17 12 -30 5 -28 -15 -37 -12 -14
4 18 14 18 15 2 21 -10 4 -29 8 -42 9 -17 1 -22 4 -14 13 6 8 2 15 -14 24 -13
6 -38 23 -57 37 l-34 25 24 13 c22 11 20 12 -22 10 -25 -1 -50 -6 -57 -10 -15
-9 -15 -1 -2 25 13 24 31 24 82 -1 48 -23 90 -28 70 -8 -19 19 -14 49 8 55 11
3 20 12 20 19 0 8 -9 14 -20 14 -11 0 -20 -7 -20 -15 0 -16 -9 -19 -50 -17
-41 2 -71 12 -65 22 3 5 -3 9 -12 9 -10 -1 -35 3 -57 7 -36 7 -37 6 -25 -13 6
-11 24 -27 38 -36 25 -16 25 -16 4 -17 -12 0 -24 -4 -28 -10 -3 -5 -12 -7 -21
-3 -12 5 -12 7 3 18 16 12 15 13 -4 19 -11 4 -28 4 -37 0 -9 -4 -24 0 -34 8
-9 9 -23 17 -31 20 -11 3 -11 7 2 20 9 8 13 18 10 22 -4 3 -1 6 5 6 6 0 15 -7
20 -16 6 -11 9 -6 10 20 1 19 -3 38 -7 41 -14 8 -41 -6 -41 -21 0 -8 -4 -14
-9 -14 -5 0 -12 -8 -15 -17 -3 -10 -3 -4 0 12 3 17 13 91 21 165 18 167 20
171 40 145 15 -19 15 -19 8 5 -4 14 -10 27 -14 30 -3 3 -8 14 -9 25 -2 11 -8
23 -14 26 -17 11 -4 44 17 44 14 0 20 7 20 24 0 13 -6 25 -13 27 -7 1 -8 0 -2
-3 17 -8 12 -43 -5 -37 -8 4 -15 12 -15 20 0 15 -38 39 -48 29 -3 -3 -1 -14 5
-24 7 -11 8 -23 1 -35 -8 -14 -12 -15 -26 -4 -15 12 -16 11 -3 -5 8 -9 11 -21
7 -24 -9 -9 -26 17 -26 40 0 9 -11 23 -25 29 -29 13 -30 17 -11 43 12 17 16
17 30 6 10 -9 14 -21 10 -33 -5 -18 -3 -17 20 3 14 12 26 25 26 27 0 3 -3 2
-7 -1 -3 -4 -14 7 -24 23 -25 40 -55 40 -64 0 -4 -16 -11 -30 -16 -30 -6 0 -7
9 -3 23 4 12 7 27 7 34 0 7 4 10 9 7 4 -3 8 0 8 5 0 14 47 14 53 1 3 -6 4 -5
3 2 -1 7 -15 14 -29 16 -15 2 -27 7 -27 11 0 4 -19 8 -42 8 -36 1 -38 0 -14
-6 17 -3 30 -10 30 -16 1 -17 -50 -17 -64 -1 -7 9 -23 16 -36 16 -16 0 -24 6
-24 17 0 13 -3 14 -12 5 -7 -7 -18 -12 -26 -12 -12 0 -12 3 -2 15 15 18 -1 21
-30 5 -13 -7 -19 -6 -24 5 -3 8 0 17 6 21 7 4 8 3 4 -4 -4 -7 -2 -12 3 -12 6
0 11 4 11 9 0 4 20 11 45 14 25 4 55 8 67 10 13 2 17 2 10 0 -8 -3 -11 -11 -8
-19 7 -17 1 -18 -24 -2 -13 9 -23 9 -30 2 -6 -6 -3 -10 12 -11 13 -1 24 -7 26
-13 4 -11 35 -14 45 -3 4 3 2 12 -4 19 -8 10 -5 15 15 20 14 3 24 10 21 14 -3
4 6 10 20 12 22 5 23 3 13 -10 -11 -13 -10 -15 4 -9 9 3 34 8 55 11 l38 6 -39
-18 c-37 -17 -38 -23 -1 -32 6 -1 22 -11 37 -21 28 -21 68 -25 68 -8 0 6 7 4
15 -5 8 -8 15 -19 15 -25 0 -6 12 -11 26 -11 17 0 28 6 31 20 5 20 27 25 86
21 42 -3 32 6 -25 23 -36 10 -54 12 -59 4 -4 -7 -10 -5 -16 6 -5 8 -31 22 -58
30 -43 14 -51 14 -65 1 -21 -19 -36 -19 -21 -1 18 21 8 24 -174 57 -61 11
-402 20 -465 13z m4 -29 c-6 -16 -34 -21 -34 -7 0 5 -6 9 -14 9 -27 0 -9 -32
20 -35 16 -2 35 -8 42 -14 8 -7 12 -7 12 2 0 10 3 10 15 0 18 -15 85 5 85 26
0 16 -45 20 -55 4 -3 -5 -15 -8 -25 -7 -23 4 -39 17 -21 17 7 0 10 3 8 8 -3 4
17 8 44 8 27 1 49 -3 49 -7 0 -5 16 -8 35 -6 19 1 35 5 35 9 0 9 259 3 267 -6
4 -3 -8 -6 -25 -6 -17 0 -34 -5 -38 -11 -4 -8 3 -9 26 -4 24 5 31 4 25 -5 -7
-11 -18 -11 -105 4 -8 2 -23 -6 -32 -17 -13 -14 -18 -16 -18 -6 0 12 -2 12 -9
0 -11 -17 -80 -22 -98 -8 -9 6 -18 5 -30 -4 -14 -12 -17 -12 -21 0 -4 11 -6
11 -13 0 -5 -8 -23 -12 -48 -11 -23 2 -41 -1 -41 -7 0 -5 -16 -5 -40 0 -23 5
-59 8 -82 7 -48 -3 -64 18 -22 28 25 7 26 8 9 15 -17 7 -18 8 -2 8 9 1 17 8
17 16 0 11 12 15 45 15 35 0 43 -3 39 -15z m521 -15 c-11 -5 -27 -9 -35 -9
-13 -1 -13 0 0 9 8 5 24 9 35 9 l20 0 -20 -9z m195 -39 c0 -11 -39 -21 -45
-11 -2 4 -2 10 2 14 10 9 43 7 43 -3z m40 -26 c29 -15 39 -38 21 -49 -5 -3
-11 1 -14 8 -3 8 -1 17 6 20 7 3 3 5 -8 5 -37 -2 -45 1 -45 16 0 19 4 19 40 0z
m-804 -11 c17 -14 17 -15 1 -10 -10 3 -23 6 -28 6 -5 0 -9 5 -9 10 0 14 13 12
36 -6z m321 10 c-3 -3 -12 -4 -19 -1 -8 3 -5 6 6 6 11 1 17 -2 13 -5z m433 -4
c0 -5 -4 -10 -10 -10 -5 0 -10 5 -10 10 0 6 5 10 10 10 6 0 10 -4 10 -10z
m-1161 -26 c-6 -8 -19 -14 -28 -13 -10 0 -8 3 7 10 14 5 20 13 16 20 -4 8 -3
9 5 5 9 -6 9 -11 0 -22z m1288 20 c-3 -3 -12 -4 -19 -1 -8 3 -5 6 6 6 11 1 17
-2 13 -5z m-1314 -11 c-7 -2 -19 -2 -25 0 -7 3 -2 5 12 5 14 0 19 -2 13 -5z
m494 1 c-3 -3 -12 -4 -19 -1 -8 3 -5 6 6 6 11 1 17 -2 13 -5z m68 -3 c-15 -13
-62 -26 -50 -13 6 5 19 12 30 15 11 3 22 5 25 6 2 0 0 -3 -5 -8z m63 2 c-10
-2 -26 -2 -35 0 -10 3 -2 5 17 5 19 0 27 -2 18 -5z m176 -12 c3 -4 -6 -6 -19
-3 -14 2 -25 6 -25 8 0 8 39 4 44 -5z m-889 -11 c-3 -5 -12 -10 -18 -10 -7 0
-6 4 3 10 19 12 23 12 15 0z m565 -10 c-20 -13 -33 -13 -25 0 3 6 14 10 23 10
15 0 15 -2 2 -10z m367 4 c-3 -3 -12 -4 -19 -1 -8 3 -5 6 6 6 11 1 17 -2 13
-5z m93 -2 c0 -5 -7 -9 -15 -9 -8 0 -15 4 -15 9 0 4 7 8 15 8 8 0 15 -4 15 -8z
m-500 -22 c0 -5 -4 -10 -10 -10 -5 0 -10 5 -10 10 0 6 5 10 10 10 6 0 10 -4
10 -10z m495 -21 c15 -14 -7 -10 -35 7 l-25 15 25 -7 c14 -3 29 -10 35 -15z
m-551 -11 c-16 -12 -32 -27 -36 -33 -5 -6 -8 -6 -8 0 0 11 50 54 64 55 5 0 -4
-10 -20 -22z m626 12 c0 -13 -20 -13 -40 0 -12 8 -9 10 13 10 15 0 27 -4 27
-10z m-46 -26 c3 -8 2 -12 -4 -9 -6 3 -10 10 -10 16 0 14 7 11 14 -7z m-625
-41 c2 -2 -3 -3 -11 -3 -9 0 -19 7 -22 16 -6 15 -4 15 11 3 10 -7 20 -15 22
-16z m-659 -3 c0 -5 -2 -10 -4 -10 -3 0 -8 5 -11 10 -3 6 -1 10 4 10 6 0 11
-4 11 -10z m1331 -7 c13 -16 12 -17 -3 -4 -17 13 -22 21 -14 21 2 0 10 -8 17
-17z m-1381 -28 c11 -13 10 -14 -4 -9 -9 3 -16 10 -16 15 0 13 6 11 20 -6z
m1420 -11 c0 -8 -4 -12 -10 -9 -5 3 -10 10 -10 16 0 5 5 9 10 9 6 0 10 -7 10
-16z m33 -56 c6 -22 5 -22 -8 -4 -17 22 -20 40 -6 32 5 -3 11 -16 14 -28z
m-897 -45 c-3 -4 -6 -1 -6 6 0 7 -4 10 -8 7 -4 -2 -9 5 -9 16 -2 21 -2 21 14
-1 8 -12 12 -25 9 -28z m973 23 c0 -6 -7 -27 -14 -46 l-13 -35 1 51 c1 38 5
50 14 47 7 -3 13 -10 12 -17z m-929 -16 c0 -5 -4 -10 -10 -10 -5 0 -10 5 -10
10 0 6 5 10 10 10 6 0 10 -4 10 -10z m874 -6 c9 -24 2 -26 -12 -4 -7 11 -8 20
-3 20 5 0 12 -7 15 -16z m-900 -49 c-3 -8 -10 -56 -14 -107 l-9 -93 4 97 c3
88 8 118 20 118 3 0 2 -7 -1 -15z m924 -71 l-3 -49 -5 57 c-3 31 -1 53 3 49 5
-5 7 -30 5 -57z m29 24 c-3 -7 -5 -2 -5 12 0 14 2 19 5 13 2 -7 2 -19 0 -25z
m-37 -216 c-10 -14 -11 -13 -6 8 3 14 7 50 8 80 l2 55 3 -63 c2 -35 -1 -70 -7
-80z m-917 18 c3 -11 1 -18 -4 -14 -5 3 -9 12 -9 20 0 20 7 17 13 -6z m21 -65
c5 -22 4 -26 -4 -15 -5 8 -10 24 -10 34 0 26 6 18 14 -19z m886 15 c0 -5 -4
-10 -10 -10 -5 0 -10 5 -10 10 0 6 5 10 10 10 6 0 10 -4 10 -10z m-29 -53
c-10 -9 -11 -8 -5 6 3 10 9 15 12 12 3 -3 0 -11 -7 -18z m-833 1 c-2 -7 2 -12
9 -13 6 0 15 -4 20 -9 5 -6 2 -6 -6 -1 -11 6 -13 4 -8 -11 5 -14 2 -12 -12 6
-11 13 -17 28 -15 32 8 12 14 10 12 -4z m815 -33 c-3 -9 -8 -14 -10 -11 -3 3
-2 9 2 15 9 16 15 13 8 -4z m197 1 c0 -2 -7 -7 -16 -10 -8 -3 -12 -2 -9 4 6
10 25 14 25 6z m-240 -35 c-13 -26 -27 -34 -35 -21 -3 5 0 10 8 10 8 0 17 7
21 15 3 8 8 15 11 15 3 0 1 -9 -5 -19z m305 -1 c-3 -5 -12 -10 -18 -10 -7 0
-6 4 3 10 19 12 23 12 15 0z m70 -58 c-3 -3 -11 0 -18 7 -9 10 -8 11 6 5 10
-3 15 -9 12 -12z m-1395 5 c0 -2 -10 -12 -21 -23 -22 -19 -22 -19 -10 4 10 18
31 31 31 19z m960 -1 c0 -2 -8 -10 -17 -17 -16 -13 -17 -12 -4 4 13 16 21 21
21 13z m-55 -35 c3 -5 2 -12 -3 -15 -5 -3 -9 1 -9 9 0 17 3 19 12 6z m565 -12
c17 -13 18 -17 5 -10 -33 17 -51 31 -40 31 6 0 21 -10 35 -21z m-590 -13 c0
-2 -7 -7 -16 -10 -8 -3 -12 -2 -9 4 6 10 25 14 25 6z m-182 -53 c-21 -2 -55
-2 -75 0 -21 2 -4 4 37 4 41 0 58 -2 38 -4z m979 -95 c-3 -8 -6 -5 -6 6 -1 11
2 17 5 13 3 -3 4 -12 1 -19z m129 6 c-3 -8 -2 -12 4 -9 6 3 10 2 10 -3 0 -16
-49 -20 -61 -6 -15 18 -2 34 28 34 19 0 24 -4 19 -16z m-1203 -38 c4 -10 0
-14 -11 -11 -9 1 -38 -1 -64 -5 -27 -4 -48 -4 -48 1 0 11 26 18 47 13 15 -4
37 1 69 15 1 1 4 -5 7 -13z m122 4 c-4 -6 7 -8 27 -5 l33 5 -29 -10 c-31 -10
-50 -5 -41 11 4 5 8 9 11 9 3 0 2 -4 -1 -10z m-291 -21 c-4 -7 0 -9 14 -5 12
4 23 2 28 -5 5 -8 2 -10 -8 -6 -9 3 -24 -1 -35 -8 -17 -14 -17 -14 0 -15 10 0
28 5 40 12 30 16 241 22 327 9 80 -13 169 -41 234 -76 36 -19 47 -21 55 -11 6
7 7 17 3 22 -4 4 2 2 13 -6 30 -21 32 -24 13 -17 -9 3 -19 0 -22 -8 -3 -10 0
-12 11 -8 10 4 14 2 10 -4 -4 -6 0 -16 7 -22 11 -9 16 -9 22 0 4 8 3 9 -4 5
-8 -5 -10 -1 -5 10 4 12 8 14 11 6 2 -7 19 -19 38 -27 24 -10 32 -18 28 -30
-5 -12 -10 -13 -20 -4 -8 6 -11 15 -8 20 3 5 -5 9 -17 9 -20 0 -17 -5 21 -37
24 -21 57 -52 73 -70 18 -20 35 -29 45 -26 12 5 14 2 9 -12 -7 -17 7 -45 23
-45 5 0 6 10 4 23 -3 14 2 9 13 -13 10 -19 30 -45 46 -58 15 -13 27 -29 27
-35 0 -6 -7 -2 -16 9 -15 18 -15 18 -10 0 6 -16 4 -17 -9 -6 -9 7 -14 19 -11
27 3 8 1 11 -4 8 -5 -3 -12 6 -16 20 -3 13 -10 22 -15 20 -13 -9 44 -95 63
-95 21 0 32 -16 17 -26 -8 -4 -9 -3 -5 4 4 7 1 12 -8 12 -20 0 -20 -11 -1 -36
12 -16 16 -17 24 -4 6 8 13 12 16 8 3 -3 -1 -12 -9 -20 -13 -13 -12 -22 2 -71
10 -32 21 -57 25 -57 5 0 6 10 3 23 -4 14 -1 12 8 -7 7 -16 11 -39 8 -50 -6
-20 -6 -20 -11 2 -3 13 -6 -58 -6 -157 0 -98 3 -174 7 -168 5 7 6 -4 3 -23 -4
-27 -3 -30 4 -15 7 14 10 15 10 5 0 -8 -4 -22 -9 -30 -7 -11 -10 -11 -10 -2 0
7 -4 11 -9 8 -5 -4 -7 4 -5 16 4 22 4 22 -6 -1 -7 -17 -7 -28 1 -38 9 -10 9
-20 0 -39 -6 -14 -11 -33 -11 -42 0 -9 -9 -28 -20 -42 -18 -24 -19 -24 -17 -3
0 12 5 19 11 16 5 -4 7 1 3 11 -4 11 -3 15 4 11 6 -4 9 -1 8 6 -2 8 3 24 10
37 7 13 10 28 8 35 -5 13 -58 -98 -60 -125 -1 -10 -4 -18 -7 -18 -8 0 -100
-132 -100 -143 0 -5 6 -5 13 -1 9 6 9 4 -1 -8 -7 -9 -12 -20 -10 -24 4 -13
-70 -89 -78 -81 -4 4 -14 -2 -21 -13 -8 -11 -18 -18 -23 -15 -4 3 -10 0 -12
-7 -3 -7 -7 -5 -11 6 -4 10 -3 15 3 11 6 -3 13 1 16 10 6 13 8 14 15 3 7 -10
9 -9 9 5 0 16 5 19 40 21 14 1 29 46 15 46 -3 0 -37 -25 -75 -55 -38 -30 -74
-55 -80 -55 -6 0 -13 -7 -16 -15 -4 -8 -10 -12 -15 -9 -5 3 -9 -2 -9 -11 0
-13 4 -14 20 -5 11 6 20 7 20 1 0 -8 -53 -34 -75 -35 -17 -1 -33 -20 -27 -31
3 -5 2 -7 -2 -3 -5 4 -19 3 -32 -2 -15 -6 -24 -6 -24 0 0 6 7 10 16 10 9 0 25
9 35 21 10 12 23 18 30 14 6 -4 15 -1 20 6 16 26 9 28 -33 9 -40 -17 -157 -52
-221 -65 -15 -3 -25 -10 -22 -15 3 -5 1 -12 -5 -15 -6 -4 -9 -1 -8 7 2 10 -24
15 -112 20 -223 12 -413 99 -561 254 -100 106 -153 200 -194 341 -22 73 -26
109 -26 213 -1 235 66 409 219 572 75 80 132 123 222 169 73 38 80 44 75 71
-3 15 -1 16 16 8 10 -6 19 -13 19 -16 0 -3 -4 -3 -9 0 -5 3 -11 -1 -15 -9 -3
-8 -2 -15 3 -15 14 0 33 28 27 39 -4 5 2 14 11 20 23 13 26 13 17 0z m474 -5
c4 -4 -1 -4 -12 0 -13 4 -17 2 -13 -8 5 -13 1 -13 -27 -1 -19 8 -37 11 -41 7
-5 -4 -5 -2 -2 4 7 12 85 10 95 -2z m42 -31 c0 -11 -3 -14 -8 -7 -4 6 -14 14
-22 17 -10 4 -8 6 8 6 15 1 22 -5 22 -16z m58 -15 c-9 -5 -6 -8 10 -8 13 0 33
-10 45 -21 l22 -21 -25 13 c-14 7 -29 14 -35 15 -37 7 -64 25 -59 38 5 12 11
13 30 4 18 -8 21 -14 12 -20z m-670 13 c11 -7 10 -9 -3 -14 -9 -4 -14 -3 -10
2 3 5 -1 12 -7 14 -7 3 -8 6 -3 6 6 0 16 -3 23 -8z m-23 -34 c3 -4 2 -5 -1 -2
-4 2 -19 -2 -35 -11 -16 -8 -32 -15 -36 -15 -5 -1 -7 -5 -5 -11 1 -5 -2 -7 -7
-4 -5 3 -12 -1 -15 -10 -6 -17 -26 -10 -26 9 0 7 4 6 11 -3 9 -12 10 -11 6 7
-3 14 -1 20 7 17 7 -3 20 4 30 15 17 18 60 23 71 8z m-138 -52 c0 -8 -7 -15
-16 -15 -14 0 -14 -2 -1 -10 15 -9 14 -11 -12 -14 -7 -1 -12 -7 -10 -14 3 -18
-6 -14 -18 8 -9 17 -8 19 7 13 10 -3 15 -3 11 2 -5 5 23 39 38 45 0 0 1 -7 1
-15z m-80 -80 c-9 -7 -15 -15 -12 -18 3 -4 2 -5 -1 -2 -10 7 -63 -58 -57 -69
3 -5 1 -6 -4 -3 -11 7 -42 -21 -42 -38 1 -13 -28 -31 -37 -23 -9 10 35 68 52
68 8 0 13 3 10 8 -2 4 2 16 10 27 8 10 14 15 14 11 0 -5 7 -3 15 4 18 15 20
34 3 24 -8 -4 -10 -3 -5 2 9 9 13 10 42 13 8 0 15 9 16 19 0 12 2 13 6 3 3 -8
-2 -20 -10 -26z m-561 -46 c-9 -22 -13 -46 -10 -52 4 -7 4 -9 -1 -5 -4 4 -14
0 -21 -10 -16 -20 -18 -36 -4 -27 6 3 7 -1 4 -9 -3 -9 -10 -16 -15 -16 -4 0
-6 -7 -3 -15 4 -8 1 -15 -5 -15 -6 0 -11 6 -11 14 0 8 -12 19 -27 24 -16 6
-21 11 -13 11 13 1 13 2 0 12 -12 8 -10 9 10 7 14 -2 28 -7 32 -13 7 -9 10 0
7 21 0 4 5 11 13 15 10 7 10 9 0 9 -10 0 -10 4 0 23 7 12 11 30 9 40 -1 9 2
17 8 17 5 0 13 10 17 22 6 19 7 20 16 4 7 -12 5 -30 -6 -57z m1708 46 c-3 -7
-12 -11 -19 -8 -11 4 -12 8 -2 18 15 16 28 10 21 -10z m33 -37 c1 -10 0 -18
-2 -18 -2 0 -9 8 -14 18 -7 14 -6 19 3 19 6 0 13 -9 13 -19z m-2194 -41 c22
-18 22 -27 -2 -27 -21 0 -44 23 -33 34 4 4 3 7 -3 6 -18 -4 -26 0 -20 10 6 10
23 4 58 -23z m2237 12 c0 -5 -4 -9 -8 -9 -5 0 -9 7 -9 15 0 8 4 12 9 9 4 -3 8
-9 8 -15z m1140 6 c0 -9 -6 -12 -15 -9 -8 4 -12 10 -9 15 8 14 24 10 24 -6z
m-3143 -47 c-3 -9 0 -19 7 -22 6 -2 -14 -4 -44 -4 -30 1 -43 3 -27 5 15 2 25
9 22 14 -9 14 1 25 25 25 15 0 20 -5 17 -18z m2758 2 c-3 -5 -12 -10 -18 -10
-7 0 -6 4 3 10 19 12 23 12 15 0z m-3362 -35 c-7 -21 -13 -19 -13 6 0 11 4 18
10 14 5 -3 7 -12 3 -20z m3632 -11 c35 -6 53 -28 33 -40 -7 -4 -14 -2 -16 4
-2 7 -9 12 -15 12 -6 0 -19 7 -29 17 -14 12 -23 14 -40 6 l-23 -11 25 -11 25
-12 -25 6 c-14 3 -30 7 -37 9 -26 5 -22 14 9 21 29 6 30 8 13 15 -17 7 -16 8
10 11 18 3 31 -1 33 -8 2 -7 18 -15 37 -19z m-2942 9 c-7 -2 -21 -2 -30 0 -10
3 -4 5 12 5 17 0 24 -2 18 -5z m2796 -2 c8 -5 -32 -8 -102 -8 -64 1 -110 5
-104 9 17 11 189 10 206 -1z m-2989 -11 c-41 -4 -91 -11 -110 -15 -19 -4 -32
-4 -29 -1 11 11 92 24 154 24 l60 -1 -75 -7z m130 -10 c0 -13 -20 -13 -40 0
-12 8 -9 10 13 10 15 0 27 -4 27 -10z m599 -4 c8 -10 8 -16 -2 -24 -10 -9 -13
-6 -13 13 0 29 0 29 15 11z m2003 0 c-18 -6 -30 -15 -25 -19 4 -5 0 -5 -10 -1
-17 6 -17 7 0 20 10 7 29 13 43 13 22 0 22 -2 -8 -13z m-2522 -22 c0 -14 -3
-15 -17 -3 -10 7 -20 15 -22 16 -2 2 5 3 17 3 14 0 22 -6 22 -16z m-719 -13
c-10 -7 -11 -13 -1 -31 9 -16 9 -25 1 -33 -16 -16 -13 -53 6 -72 15 -16 15
-19 0 -45 -18 -30 -25 -97 -7 -70 8 12 10 9 10 -12 0 -15 -5 -30 -10 -33 -6
-4 -7 -11 -4 -17 4 -6 -1 -6 -14 1 -19 10 -21 8 -25 -31 l-4 -43 -1 48 c-1 32
2 47 11 47 8 0 7 3 -3 10 -13 8 -12 11 5 24 11 8 17 18 12 22 -4 4 -7 2 -7 -4
0 -7 -5 -12 -10 -12 -7 0 -9 19 -5 52 7 59 12 69 25 48 5 -8 12 -11 16 -7 4 4
0 15 -10 26 -13 14 -14 24 -7 45 6 14 8 40 4 57 -4 21 -1 34 8 39 7 5 16 7 18
4 3 -3 -1 -9 -8 -13z m278 -23 c-24 -18 -50 -38 -57 -45 -7 -7 -17 -13 -21
-13 -5 0 -24 -22 -43 -50 -19 -27 -38 -47 -41 -44 -17 18 161 184 197 184 6 0
-10 -15 -35 -32z m502 5 c7 -10 9 -15 5 -11 -5 4 -16 2 -25 -5 -14 -10 -14
-10 -4 4 7 9 10 19 6 22 -3 4 -4 7 -1 7 3 0 12 -8 19 -17z m431 -2 c8 11 9 11
6 1 -4 -16 -22 -18 -24 -2 -2 7 -1 6 3 -1 4 -8 8 -7 15 2z m2498 -46 c0 -5 -5
-3 -10 5 -5 8 -10 20 -10 25 0 6 5 3 10 -5 5 -8 10 -19 10 -25z m-3599 -33
c-6 -11 -8 -29 -5 -39 5 -17 5 -17 -6 1 -10 14 -9 23 1 42 7 13 14 22 16 20 3
-2 0 -13 -6 -24z m1077 11 c-2 -10 -11 -24 -20 -31 -20 -14 -25 -38 -6 -26 7
5 8 3 3 -5 -10 -18 -27 2 -19 22 3 9 10 17 16 17 5 0 6 5 3 10 -7 12 2 30 16
30 5 0 9 -8 7 -17z m-1106 -40 c2 -27 0 -49 -4 -51 -4 -2 -8 -12 -8 -23 0 -10
-4 -19 -8 -19 -10 0 -32 -88 -32 -128 -1 -24 -2 -25 -11 -9 -8 13 -7 27 1 48
7 16 9 40 6 54 -7 27 -5 41 5 38 4 -1 5 5 3 15 -5 21 12 49 23 39 4 -5 1 -12
-7 -17 -8 -6 -10 -10 -4 -10 6 0 17 7 24 15 9 10 9 15 1 15 -6 0 -11 17 -11
40 0 56 17 50 22 -7z m61 32 c-3 -9 -8 -14 -10 -11 -3 3 -2 9 2 15 9 16 15 13
8 -4z m3641 -40 c3 -8 1 -15 -4 -15 -6 0 -10 7 -10 15 0 8 2 15 4 15 2 0 6 -7
10 -15z m-1012 -22 c-3 -16 -7 -22 -10 -15 -4 13 4 42 11 42 2 0 2 -12 -1 -27z
m1057 -58 c0 -5 -6 1 -14 15 -8 14 -14 30 -14 35 0 6 6 -1 14 -15 8 -14 14
-29 14 -35z m-2673 26 c-9 -10 -16 -22 -15 -27 4 -22 -2 -44 -12 -44 -6 0 -8
9 -4 23 10 36 28 67 38 67 6 0 2 -8 -7 -19z m-232 -21 c-6 -6 -10 -3 -10 10 0
13 4 16 10 10 7 -7 7 -13 0 -20z m-827 -15 c-6 -19 -14 -35 -19 -35 -11 0 -10
2 8 38 20 42 25 40 11 -3z m1020 -67 c-3 -8 -6 -5 -6 6 -1 11 2 17 5 13 3 -3
4 -12 1 -19z m2823 -3 c0 -7 -6 -18 -14 -22 -9 -6 -15 -38 -18 -105 -3 -54 -1
-95 3 -92 5 3 9 12 9 20 0 8 4 14 10 14 11 0 1 -32 -14 -42 -23 -16 -28 -7
-22 35 3 23 6 79 7 125 1 73 4 82 20 82 11 0 19 -7 19 -15z m-71 -115 c0 -47
-3 -90 -7 -96 -4 -7 -8 41 -8 105 -1 66 2 107 7 96 4 -11 8 -58 8 -105z
m-1064 100 c3 -5 1 -10 -4 -10 -6 0 -11 5 -11 10 0 6 2 10 4 10 3 0 8 -4 11
-10z m-1680 -80 c2 -28 0 -50 -5 -50 -4 0 -8 19 -8 43 1 23 -2 53 -6 67 -6 21
-5 22 4 7 6 -9 13 -40 15 -67z m-1062 -48 c2 -57 0 -97 -4 -90 -5 7 -8 58 -8
113 1 124 6 113 12 -23z m2742 43 c-1 -35 -4 -67 -8 -71 -3 -3 -6 26 -5 65 0
39 4 71 8 71 3 0 6 -29 5 -65z m-2798 29 c-3 -3 1 -27 8 -52 8 -25 12 -48 10
-51 -3 -2 -5 1 -5 7 0 7 -5 12 -10 12 -6 0 -8 -15 -4 -39 4 -22 2 -41 -4 -45
-6 -3 -8 -20 -5 -37 3 -20 0 -35 -9 -40 -18 -12 -31 -11 -23 1 3 6 2 10 -2 10
-5 0 -10 11 -11 25 -1 16 3 23 11 19 8 -3 13 7 13 33 1 21 4 47 6 58 3 11 0
28 -6 37 -11 18 9 68 27 68 6 0 8 -3 4 -6z m-50 -96 c-3 -7 -5 -2 -5 12 0 14
2 19 5 13 2 -7 2 -19 0 -25z m1150 -20 c-3 -8 -6 -5 -6 6 -1 11 2 17 5 13 3
-3 4 -12 1 -19z m17 -37 c-4 -17 -9 -30 -11 -27 -3 2 -2 19 2 36 4 17 9 30 11
27 2 -2 1 -18 -2 -36z m1679 19 c-3 -12 -8 -19 -11 -16 -5 6 5 36 12 36 2 0 2
-9 -1 -20z m-1830 -25 c-3 -9 -8 -14 -10 -11 -3 3 -2 9 2 15 9 16 15 13 8 -4z
m-924 -46 c1 -3 -6 -6 -14 -6 -15 0 -21 28 -8 41 6 6 20 -16 22 -35z m2754 26
c-3 -9 -8 -14 -10 -11 -3 3 -2 9 2 15 9 16 15 13 8 -4z m1038 -32 c-9 -15 -10
-14 -7 7 6 35 7 37 12 23 3 -7 1 -20 -5 -30z m40 0 c-9 -56 -71 -155 -71 -113
0 6 4 10 9 10 9 0 24 38 22 53 -1 5 4 5 10 1 9 -5 10 1 5 20 -4 15 -2 26 4 26
5 0 10 9 10 20 0 11 4 20 8 20 5 0 6 -17 3 -37z m-3790 -19 c11 -26 17 -49 14
-52 -2 -3 -8 4 -11 14 -4 10 -13 34 -20 52 -20 50 -6 38 17 -14z m1042 -4 c-3
-12 -8 -19 -11 -16 -5 6 5 36 12 36 2 0 2 -9 -1 -20z m14 -20 c-3 -11 -1 -23
4 -26 6 -3 7 -15 3 -26 -4 -15 -3 -18 6 -13 8 5 11 1 8 -10 -1 -10 -9 -20 -16
-23 -7 -2 -10 2 -6 12 3 9 2 16 -4 16 -8 0 -9 17 -3 78 0 6 4 12 7 12 4 0 4
-9 1 -20z m2673 -13 c0 -2 -9 -14 -20 -27 -22 -26 -27 -20 -8 10 11 17 28 27
28 17z m-3816 -29 c8 -33 7 -40 -4 -33 -5 3 -10 -3 -10 -14 0 -23 16 -28 23
-8 4 10 7 10 18 0 11 -11 10 -13 -5 -13 -11 0 -16 -5 -13 -14 3 -8 -1 -22 -8
-33 -13 -16 -16 -16 -25 -3 -5 8 -7 23 -4 33 3 9 0 17 -7 17 -8 0 -8 4 2 16
10 13 10 17 -2 26 -11 7 -11 11 -1 15 6 2 12 11 12 19 0 22 17 16 24 -8z m83
-10 c-3 -8 -6 -5 -6 6 -1 11 2 17 5 13 3 -3 4 -12 1 -19z m58 -26 c-8 -8 -25
17 -25 38 0 9 6 6 16 -8 9 -13 13 -26 9 -30z m3610 -21 c-3 -6 -11 -11 -16
-11 -5 0 -4 6 3 14 14 16 24 13 13 -3z m63 -10 c3 -8 -1 -12 -9 -9 -7 2 -15
10 -17 17 -3 8 1 12 9 9 7 -2 15 -10 17 -17z m-2635 3 c-7 -3 -9 -13 -6 -22 4
-14 3 -14 -5 -2 -12 16 -7 30 11 29 9 0 9 -2 0 -5z m1928 -31 c13 -16 12 -17
-3 -4 -17 13 -22 21 -14 21 2 0 10 -8 17 -17z m839 6 c0 -16 -13 -39 -21 -39
-5 0 -9 11 -9 23 0 14 6 24 15 24 8 0 15 -4 15 -8z m-246 -23 c-3 -9 -10 -13
-16 -10 -5 3 -4 12 3 20 15 18 22 13 13 -10z m46 -1 c-7 -9 -15 -13 -18 -10
-3 2 1 11 8 20 7 9 15 13 18 10 3 -2 -1 -11 -8 -20z m-2553 8 c-8 -13 9 -48
23 -48 17 0 23 -42 8 -51 -7 -4 -8 -3 -4 5 4 6 1 18 -8 26 -9 9 -16 11 -19 5
-3 -6 -4 -5 -3 2 2 7 0 23 -5 34 -4 12 -5 25 -2 28 9 8 15 7 10 -1z m2468 -33
c-3 -5 -12 -10 -18 -10 -7 0 -6 4 3 10 19 12 23 12 15 0z m-3335 -47 c15 -16
-48 12 -65 29 -18 18 -17 18 20 -2 22 -12 42 -24 45 -27z m460 32 c-7 -9 -15
-13 -19 -10 -3 3 1 10 9 15 21 14 24 12 10 -5z m2387 8 c-4 -3 -2 -12 5 -20 8
-11 7 -12 -6 -7 -9 3 -16 9 -16 13 0 9 11 21 18 21 3 0 2 -3 -1 -7z m-2422
-32 c-3 -6 -11 -11 -16 -11 -5 0 -4 6 3 14 14 16 24 13 13 -3z m1949 -12 c-8
-14 -21 -11 -21 5 0 8 6 12 14 9 7 -3 10 -9 7 -14z m891 11 c-3 -5 -10 -10
-16 -10 -5 0 -9 5 -9 10 0 6 7 10 16 10 8 0 12 -4 9 -10z m-331 -20 c10 0 17
-3 13 -6 -10 -10 -57 5 -57 18 0 9 3 9 12 0 7 -7 21 -12 32 -12z m-2909 0 c3
-5 1 -10 -4 -10 -6 0 -11 5 -11 10 0 6 2 10 4 10 3 0 8 -4 11 -10z m350 0 c3
-5 1 -10 -4 -10 -6 0 -11 5 -11 10 0 6 2 10 4 10 3 0 8 -4 11 -10z m65 0 c0
-5 -5 -10 -11 -10 -5 0 -7 5 -4 10 3 6 8 10 11 10 2 0 4 -4 4 -10z m6 -28 c-9
-9 -23 -26 -31 -37 -13 -17 -16 -18 -25 -5 -7 10 -13 11 -17 4 -5 -5 -30 -11
-58 -13 l-50 -2 29 16 c15 8 32 12 37 9 5 -3 9 2 9 10 0 21 19 20 41 0 10 -9
23 -13 30 -9 8 6 7 10 -5 17 -22 12 -10 31 15 23 13 -4 21 -1 26 11 4 12 8 14
11 5 2 -7 -3 -20 -12 -29z m2766 26 c-9 -9 -15 -9 -24 0 -9 9 -7 12 12 12 19
0 21 -3 12 -12z m-2890 -20 c-23 -9 -244 -10 -259 0 -6 4 54 7 133 7 79 0 136
-3 126 -7z m2561 -13 c-3 -9 1 -15 8 -15 11 0 11 -2 -1 -10 -12 -8 -12 -10 3
-16 17 -6 24 -24 9 -24 -15 0 -46 64 -34 68 7 2 9 9 6 14 -4 7 -2 8 4 4 6 -4
9 -13 5 -21z m230 18 c-29 -2 -77 -2 -105 0 -29 2 -6 3 52 3 58 0 81 -1 53 -3z
m-2179 -35 c-9 -14 -23 2 -17 18 4 12 8 13 14 3 4 -7 5 -17 3 -21z m2355 12
c8 0 12 -3 9 -6 -4 -3 -8 -4 -10 -2 -2 2 -16 -5 -32 -15 -29 -20 -73 -19 -68
1 1 6 -5 12 -14 12 -8 0 -12 5 -8 11 4 7 25 9 58 5 28 -3 57 -6 65 -6z m-2805
-19 c9 -10 16 -25 14 -32 -2 -8 3 -13 10 -11 8 1 11 -2 7 -8 -3 -5 -1 -19 6
-31 10 -20 22 -89 15 -89 -2 0 -13 8 -24 19 -28 24 -28 41 -1 36 12 -3 18 -1
15 3 -4 4 -17 7 -29 7 -13 0 -23 7 -25 18 -2 10 3 17 12 17 9 0 16 -5 16 -12
0 -6 3 -9 6 -5 7 7 -8 35 -18 36 -5 1 -12 1 -18 1 -5 0 -10 9 -10 19 0 11 -4
23 -10 26 -5 3 -10 10 -10 16 0 16 26 10 44 -10z m1856 -6 c0 -2 -7 -1 -17 2
-10 4 -14 2 -10 -4 4 -6 -1 -17 -10 -24 -12 -10 -14 -10 -9 -1 4 7 2 12 -6 12
-8 0 -6 5 5 11 9 6 15 15 11 21 -4 6 2 6 15 -1 11 -7 21 -14 21 -16z m-1380
-5 c0 -5 -2 -10 -4 -10 -3 0 -8 5 -11 10 -3 6 -1 10 4 10 6 0 11 -4 11 -10z
m26 -35 c4 -8 10 -12 15 -9 5 3 9 0 9 -5 0 -14 -17 -14 -25 -1 -4 6 -10 8 -14
6 -4 -3 -8 1 -8 9 0 19 16 19 23 0z m1822 -50 c-1 -13 -6 -21 -10 -19 -4 3 -8
-3 -8 -13 0 -15 -2 -16 -10 -3 -13 21 -12 30 3 28 7 -2 12 6 11 19 0 12 3 20
8 17 4 -3 7 -16 6 -29z m-1782 0 c4 -8 11 -12 18 -8 6 3 7 2 3 -2 -13 -14 -36
-14 -31 0 3 7 -3 15 -13 18 -17 4 -17 5 0 6 10 0 20 -6 23 -14z m67 -48 c7 4
6 0 -2 -10 -7 -9 -18 -17 -24 -17 -6 0 -7 3 -3 7 3 4 -4 13 -16 21 -13 7 -15
11 -5 8 9 -3 17 0 17 7 0 7 5 4 11 -6 6 -10 15 -14 22 -10z m41 -36 c-5 -3
-12 -10 -15 -14 -4 -4 -9 -1 -13 8 -3 9 -2 13 4 10 6 -3 10 -1 10 5 0 6 5 8
11 4 6 -3 7 -9 3 -13z m57 -40 c5 9 9 10 9 2 0 -6 8 -14 18 -16 9 -3 5 -4 -9
-3 -14 1 -38 10 -54 20 -21 14 -25 20 -14 27 10 6 18 0 27 -18 11 -20 16 -23
23 -12z m915 4 c-3 -9 -10 -14 -15 -11 -5 4 -11 -2 -13 -11 -3 -15 -5 -14 -10
5 -3 12 -2 20 3 16 5 -3 9 1 9 8 0 9 3 9 10 -2 8 -13 10 -12 10 4 0 11 3 17 6
13 4 -3 4 -13 0 -22z m1389 -34 c3 -5 1 -12 -5 -16 -5 -3 -10 1 -10 9 0 18 6
21 15 7z m-2255 -11 c0 -5 -7 -7 -15 -4 -8 4 -15 8 -15 10 0 2 7 4 15 4 8 0
15 -4 15 -10z m74 -22 c-5 -8 0 -9 14 -6 14 4 20 2 15 -5 -4 -6 0 -8 10 -4 9
3 19 3 21 -2 3 -4 -12 -7 -34 -7 -21 1 -36 5 -32 10 3 5 -6 6 -19 3 -23 -6
-23 -5 -5 8 24 18 40 20 30 3z m2176 -8 c0 -5 -5 -10 -11 -10 -5 0 -7 5 -4 10
3 6 8 10 11 10 2 0 4 -4 4 -10z m-33 -22 c-3 -8 -6 -5 -6 6 -1 11 2 17 5 13 3
-3 4 -12 1 -19z m-1977 -16 c65 4 100 -7 54 -16 -11 -3 -26 -6 -34 -9 -8 -2
-12 -2 -7 0 17 10 6 23 -12 13 -25 -13 -34 -13 -26 0 4 7 -3 9 -22 5 -23 -4
-24 -4 -8 4 17 8 18 10 3 10 -10 1 -18 6 -18 11 0 6 12 5 28 -4 15 -8 35 -14
42 -14z m375 14 c7 3 16 1 20 -5 3 -6 3 -11 -2 -12 -4 0 -20 -3 -35 -5 -14 -2
-30 1 -34 7 -4 8 0 9 15 4 15 -4 20 -2 18 7 -2 7 -2 10 0 6 2 -4 10 -5 18 -2z
m-458 -12 c-3 -3 -12 -4 -19 -1 -8 3 -5 6 6 6 11 1 17 -2 13 -5z m397 -14 c5
-5 -7 -8 -25 -8 -19 1 -28 3 -20 6 11 4 11 6 0 14 -10 6 -6 7 11 3 14 -4 29
-11 34 -15z m-106 -1 c-10 -5 -26 -5 -40 0 -20 7 -17 9 16 9 29 0 36 -2 24 -9z
m-75 -6 c-7 -2 -21 -2 -30 0 -10 3 -4 5 12 5 17 0 24 -2 18 -5z m990 -94 c7
-1 16 -1 20 0 5 1 6 -3 2 -9 -4 -6 -13 -7 -23 -1 -9 4 -23 6 -29 4 -7 -3 -13
0 -13 7 0 6 -5 8 -11 5 -7 -5 -4 -13 8 -25 14 -13 21 -15 33 -6 13 9 13 9 2
-6 -12 -15 -15 -15 -42 0 -21 12 -26 20 -18 29 6 7 7 13 3 13 -4 0 -2 7 5 15
12 14 15 13 32 -5 10 -11 24 -21 31 -21z m-920 -36 c-7 -2 -19 -2 -25 0 -7 3
-2 5 12 5 14 0 19 -2 13 -5z m-279 -88 c-4 -8 -11 -15 -16 -15 -6 0 -5 6 2 15
7 8 14 15 16 15 2 0 1 -7 -2 -15z m-56 -45 c-7 -10 -14 -17 -17 -15 -4 4 18
35 25 35 2 0 -1 -9 -8 -20z m-38 -30 c0 -5 -10 -14 -22 -20 -21 -10 -21 -10
-6 3 10 8 15 17 11 20 -3 4 -1 7 5 7 7 0 12 -4 12 -10z m724 2 c3 -5 -1 -9 -9
-9 -8 0 -12 4 -9 9 3 4 7 8 9 8 2 0 6 -4 9 -8z m33 -64 c-3 -8 -6 -5 -6 6 -1
11 2 17 5 13 3 -3 4 -12 1 -19z m-807 -2 c0 -3 -4 -8 -10 -11 -5 -3 -10 -1
-10 4 0 6 5 11 10 11 6 0 10 -2 10 -4z m-46 -95 c-4 -17 -9 -30 -11 -27 -3 2
-2 19 2 36 9 41 17 33 9 -9z m903 17 c-3 -8 -6 -5 -6 6 -1 11 2 17 5 13 3 -3
4 -12 1 -19z m22 -153 c0 -49 -3 -95 -7 -102 -4 -6 -7 42 -7 108 0 65 3 111 7
101 4 -9 7 -57 7 -107z m-942 -17 c-2 -24 -4 -7 -4 37 0 44 2 63 4 43 2 -21 2
-57 0 -80z m36 -154 c9 -10 9 -24 -1 -24 -9 0 -32 60 -31 81 0 8 6 0 12 -18 7
-17 15 -35 20 -39z m-66 34 c-3 -8 -6 -5 -6 6 -1 11 2 17 5 13 3 -3 4 -12 1
-19z m-45 -20 c-7 -7 -12 -8 -12 -2 0 14 12 26 19 19 2 -3 -1 -11 -7 -17z
m998 2 c0 -5 -4 -10 -10 -10 -5 0 -10 5 -10 10 0 6 5 10 10 10 6 0 10 -4 10
-10z m-29 -57 c-12 -20 -14 -14 -5 12 4 9 9 14 11 11 3 -2 0 -13 -6 -23z
m-826 -33 l20 -25 -22 19 c-13 11 -23 24 -23 29 0 6 1 8 3 6 1 -2 11 -15 22
-29z m775 -54 c0 -2 -7 -7 -16 -10 -8 -3 -12 -2 -9 4 6 10 25 14 25 6z m-695
-37 c11 -17 -1 -21 -15 -4 -8 9 -8 15 -2 15 6 0 14 -5 17 -11z m645 -3 c0 -2
-8 -10 -17 -17 -16 -13 -17 -12 -4 4 13 16 21 21 21 13z m-670 -26 c0 -5 -4
-10 -10 -10 -5 0 -10 5 -10 10 0 6 5 10 10 10 6 0 10 -4 10 -10z m625 -20 c-3
-5 -11 -10 -16 -10 -6 0 -7 5 -4 10 3 6 11 10 16 10 6 0 7 -4 4 -10z m-524
-17 c13 -17 13 -17 -6 -3 -11 8 -22 16 -24 17 -2 2 0 3 6 3 6 0 17 -8 24 -17z
m496 -9 c-3 -3 -12 -4 -19 -1 -8 3 -5 6 6 6 11 1 17 -2 13 -5z m-437 -20 c0
-2 -7 -4 -15 -4 -8 0 -15 4 -15 10 0 5 7 7 15 4 8 -4 15 -8 15 -10z m475 -5
c-3 -4 -12 -6 -19 -3 -8 3 -17 1 -21 -5 -3 -6 -12 -11 -18 -11 -7 0 -1 9 12
19 24 18 57 18 46 0z m-105 -3 c-14 -8 -41 -16 -60 -19 l-35 -6 37 12 c20 7
40 15 44 20 4 4 14 7 23 7 10 -1 7 -6 -9 -14z m-327 -8 c12 -6 69 -14 127 -19
l105 -7 -105 2 c-76 1 -113 7 -135 19 -16 9 -26 16 -22 17 5 0 18 -5 30 -12z
m-386 -16 l-28 -3 21 -19 c15 -13 17 -19 7 -23 -8 -3 -20 -1 -28 4 -12 7 -12
9 1 9 10 0 11 3 3 11 -19 19 -5 37 25 30 l27 -6 -28 -3z m68 -4 c4 -3 -8 -9
-25 -13 -17 -4 -34 -4 -37 -1 -4 3 4 6 16 6 12 0 20 4 17 9 -7 10 19 9 29 -1z
m277 -20 c-18 -18 -15 -38 6 -38 10 0 22 3 26 7 9 10 109 3 120 -8 14 -13 7
-16 -51 -24 -34 -4 -53 -3 -53 3 0 6 12 13 28 15 22 3 20 4 -10 6 -28 1 -38
-3 -38 -15 0 -9 -5 -12 -12 -8 -9 5 -10 4 -3 -4 6 -5 19 -12 30 -14 11 -2 -10
-5 -47 -6 -65 -1 -95 9 -62 22 8 3 12 2 9 -4 -4 -6 7 -10 24 -10 17 0 31 5 31
11 0 6 -7 8 -16 5 -11 -4 -18 1 -21 14 -3 11 -10 20 -15 20 -6 0 -4 8 3 17 12
14 12 16 0 8 -10 -5 -12 -4 -7 4 4 6 16 9 27 6 11 -4 19 -3 18 2 -3 20 2 26
13 15 9 -9 9 -15 0 -24z m77 -4 c13 -13 -10 -12 -35 2 l-29 16 30 -7 c16 -4
32 -9 34 -11z m511 -26 c0 6 10 12 22 12 21 0 21 0 2 -15 -10 -8 -35 -14 -54
-13 -23 0 -27 2 -12 5 12 2 22 10 22 16 0 7 4 6 10 -3 6 -10 10 -11 10 -2z
m-380 -23 c0 -8 6 -15 13 -16 96 -6 76 -16 -35 -16 -93 0 -96 1 -38 7 36 4 56
7 44 8 -25 2 -28 32 -2 32 10 0 18 -7 18 -15z m90 -3 c16 -7 26 -32 13 -32 -5
0 -19 9 -33 20 -25 19 -13 27 20 12z"/>
<path d="M2580 4487 c0 -5 -11 -7 -25 -5 -17 4 -25 1 -25 -8 0 -17 -17 -18
-23 -1 -4 9 -6 9 -6 0 -1 -17 18 -26 32 -15 7 6 24 9 40 7 15 -2 27 1 27 7 0
6 6 8 13 5 7 -3 24 1 37 8 22 12 21 13 -23 12 -26 0 -47 -5 -47 -10z"/>
<path d="M2460 4469 c0 -5 5 -7 10 -4 6 3 10 8 10 11 0 2 -4 4 -10 4 -5 0 -10
-5 -10 -11z"/>
<path d="M2388 2818 c17 -17 17 -234 0 -241 -7 -3 5 -5 27 -5 22 0 34 2 28 5
-10 3 -13 39 -13 129 l0 124 -27 0 c-21 0 -24 -3 -15 -12z"/>
<path d="M2492 2803 c2 -10 10 -18 18 -18 8 0 16 8 18 18 2 12 -3 17 -18 17
-15 0 -20 -5 -18 -17z"/>
<path d="M2856 2811 c-3 -5 0 -14 8 -20 10 -8 16 -8 25 2 6 8 8 17 4 20 -9 10
-31 9 -37 -2z"/>
<path d="M1938 2802 c17 -5 17 -218 0 -225 -7 -3 12 -5 42 -5 30 0 49 2 43 5
-16 6 -18 220 -3 225 5 2 -14 3 -42 4 -29 0 -47 -1 -40 -4z"/>
<path d="M2086 2793 c19 -19 17 -189 -2 -208 -14 -13 -10 -15 38 -14 29 0 47
3 41 6 -16 6 -18 220 -3 225 6 2 -12 3 -38 3 -39 0 -46 -2 -36 -12z"/>
<path d="M2753 2793 c-18 -6 -18 -194 -1 -211 14 -14 54 -16 62 -4 3 5 -5 8
-17 8 -20 -1 -22 4 -25 68 -2 49 1 72 10 77 9 6 9 9 1 9 -6 0 -13 13 -15 28
-2 18 -8 27 -15 25z"/>
<path d="M2295 2726 c30 -30 35 -98 9 -134 -19 -28 -1 -29 26 -2 14 14 20 33
20 64 0 48 -20 80 -58 91 -22 6 -22 6 3 -19z"/>
<path d="M2610 2743 c-43 -17 -39 -57 10 -91 33 -22 40 -32 37 -54 -4 -30 2
-35 21 -16 24 24 13 57 -27 84 -49 32 -56 49 -28 69 21 15 16 19 -13 8z"/>
<path d="M2234 2732 c-37 -24 -44 -96 -13 -136 27 -34 42 -33 23 2 -7 15 -14
41 -14 57 0 17 7 42 14 58 15 27 11 33 -10 19z"/>
<path d="M2488 2728 c7 -7 12 -39 12 -75 0 -48 -4 -64 -17 -72 -14 -8 -8 -10
27 -10 25 0 39 3 33 6 -9 3 -13 30 -13 84 l0 79 -27 0 c-21 0 -24 -3 -15 -12z"/>
<path d="M2663 2718 c8 -13 13 -14 19 -5 12 18 10 23 -11 23 -15 0 -17 -3 -8
-18z"/>
<path d="M2848 2733 c8 -3 12 -29 12 -78 0 -49 -4 -75 -12 -78 -7 -3 7 -6 32
-6 35 0 41 2 28 10 -15 8 -18 24 -18 84 l0 75 -27 -1 c-16 0 -22 -3 -15 -6z"/>
<path d="M2966 2721 c-49 -54 -19 -151 48 -151 31 0 56 15 56 33 0 5 -7 1 -16
-7 -19 -20 -48 -21 -63 -2 -21 25 -24 82 -8 115 17 35 9 41 -17 12z"/>
<path d="M3042 2714 c-1 -17 2 -24 11 -21 15 5 16 39 2 44 -6 2 -12 -8 -13
-23z"/>
<path d="M2581 2605 c-1 -25 3 -31 21 -32 13 -1 18 1 11 5 -7 4 -16 19 -22 32
-10 25 -10 25 -10 -5z"/>
<path d="M2618 2358 c17 -17 17 -234 0 -241 -7 -3 5 -5 27 -5 22 0 34 2 28 5
-10 3 -13 39 -13 129 l0 124 -27 0 c-21 0 -24 -3 -15 -12z"/>
<path d="M2828 2358 c17 -17 17 -234 0 -241 -7 -3 5 -6 27 -6 30 -1 36 2 27
11 -21 21 -15 115 8 138 11 11 16 20 12 20 -4 0 -13 -5 -20 -12 -9 -9 -12 1
-12 45 0 55 -1 57 -27 57 -21 0 -24 -3 -15 -12z"/>
<path d="M2018 2342 c17 -5 17 -218 0 -225 -7 -3 12 -5 42 -5 30 0 49 2 43 5
-16 6 -18 220 -3 225 5 2 -14 3 -42 4 -29 0 -47 -1 -40 -4z"/>
<path d="M2162 2337 c23 -23 24 -189 2 -212 -14 -13 -10 -15 38 -14 29 0 47 3
41 6 -9 3 -13 36 -13 114 0 109 0 109 -24 109 -13 0 -33 3 -43 7 -17 6 -17 6
-1 -10z"/>
<path d="M2728 2303 c-2 -16 -1 -64 2 -108 5 -79 5 -80 34 -83 27 -3 46 10 46
33 -1 6 -5 2 -11 -7 -5 -10 -17 -18 -24 -18 -12 0 -15 20 -15 105 0 85 -3 105
-14 105 -9 0 -16 -12 -18 -27z"/>
<path d="M2327 2283 c-44 -11 -63 -117 -27 -153 25 -25 82 -27 101 -2 11 14
11 15 -1 5 -35 -32 -90 2 -90 54 0 21 5 23 50 23 46 0 50 2 50 24 0 14 -10 32
-22 40 -23 16 -29 17 -61 9z m51 -36 c3 -25 1 -27 -32 -27 -40 0 -45 13 -19
42 23 26 47 19 51 -15z"/>
<path d="M2518 2280 c25 -10 30 -47 10 -69 -10 -11 -10 -13 0 -7 8 5 12 -3 12
-27 0 -42 -24 -66 -48 -50 -20 13 -17 43 6 61 20 15 11 16 -23 0 -21 -9 -25
-18 -23 -42 2 -26 8 -32 31 -34 16 -2 34 2 42 8 9 7 15 8 20 0 3 -5 16 -10 28
-9 12 0 16 3 10 6 -9 3 -13 28 -13 73 0 60 -3 71 -22 84 -12 9 -29 16 -38 15
-9 0 -6 -4 8 -9z"/>
<path d="M2934 2268 c19 -27 22 -128 4 -146 -9 -9 -3 -12 27 -12 22 0 35 4 29
8 -6 4 -14 38 -17 76 -4 51 -10 73 -23 83 -27 20 -37 16 -20 -9z"/>
<path d="M2460 2265 c-10 -12 -10 -19 -2 -27 17 -17 37 5 25 27 -9 15 -11 15
-23 0z"/>
<path d="M3100 1935 c-10 -12 -9 -16 4 -21 9 -4 20 -4 23 0 4 3 1 6 -7 6 -10
0 -10 3 0 15 7 8 8 15 2 15 -5 0 -15 -7 -22 -15z"/>
<path d="M2095 3250 c-3 -6 1 -7 9 -4 18 7 21 14 7 14 -6 0 -13 -4 -16 -10z"/>
<path d="M1371 3123 c-1 -6 -4 -20 -7 -30 -5 -17 -5 -17 6 0 6 10 9 23 6 30
-3 9 -5 9 -5 0z"/>
<path d="M526 2171 c-4 -7 -5 -15 -2 -18 9 -9 19 4 14 18 -4 11 -6 11 -12 0z"/>
<path d="M2830 4410 c-12 -8 -9 -10 12 -10 15 0 30 5 33 10 8 13 -25 13 -45 0z"/>
<path d="M2885 4390 c3 -5 13 -10 21 -10 8 0 14 5 14 10 0 6 -9 10 -21 10 -11
0 -17 -4 -14 -10z"/>
<path d="M3170 4379 c0 -6 -9 -8 -22 -4 -18 6 -20 4 -12 -5 7 -6 20 -10 30 -8
19 3 32 28 15 28 -6 0 -11 -5 -11 -11z"/>
<path d="M3233 4383 c-19 -7 -15 -21 5 -18 9 1 11 0 5 -2 -7 -3 -13 -12 -13
-21 -1 -10 -7 -5 -15 13 -7 17 -14 26 -15 20 -7 -64 -6 -126 1 -131 6 -3 5
-11 -2 -20 -16 -20 5 -44 22 -27 9 9 8 18 -5 37 -20 31 -20 43 -2 62 13 12 15
12 21 -5 3 -10 18 -31 33 -46 21 -21 32 -25 56 -21 29 6 29 6 11 -9 -20 -16
-20 -16 0 -12 14 2 19 9 17 26 -1 13 5 35 13 48 14 21 14 24 0 29 -9 4 -19 4
-22 0 -4 -3 -17 1 -30 9 -13 9 -23 12 -23 8 0 -5 14 -16 30 -25 34 -20 39 -38
10 -38 -14 0 -18 5 -13 18 6 14 4 15 -8 6 -11 -9 -17 -9 -27 2 -7 8 -9 14 -4
14 13 0 10 33 -3 42 -6 4 -2 8 8 8 9 0 17 4 17 9 0 12 -51 29 -67 24z m127
-93 c0 -5 -2 -10 -4 -10 -3 0 -8 5 -11 10 -3 6 -1 10 4 10 6 0 11 -4 11 -10z"/>
<path d="M2163 4356 c0 -8 6 -12 14 -9 7 3 10 9 7 14 -8 14 -21 11 -21 -5z"/>
<path d="M2955 4360 c-12 -19 7 -32 36 -26 16 3 29 1 29 -4 0 -6 -4 -10 -10
-10 -5 0 -10 -9 -10 -19 0 -11 -6 -21 -12 -24 -7 -2 3 -4 22 -3 34 2 35 3 36
44 0 24 -3 45 -7 48 -5 3 -6 -2 -3 -10 8 -20 -3 -20 -22 -1 -18 17 -50 20 -59
5z m45 -10 c0 -5 -4 -10 -10 -10 -5 0 -10 5 -10 10 0 6 5 10 10 10 6 0 10 -4
10 -10z"/>
<path d="M3305 4350 c-10 -16 6 -32 26 -27 10 3 30 -3 43 -14 26 -21 41 -25
31 -9 -4 6 1 7 11 3 15 -5 15 -7 0 -15 -9 -5 -20 -7 -25 -3 -5 3 -12 1 -15 -4
-4 -5 -1 -13 5 -16 5 -4 8 -13 5 -21 -3 -9 0 -11 11 -7 12 5 14 3 8 -6 -6 -10
-2 -11 15 -6 20 6 22 4 17 -14 -4 -17 -2 -19 13 -11 10 6 26 7 34 4 10 -4 16
-1 16 10 0 12 -5 14 -24 6 -21 -8 -24 -6 -21 11 2 10 -1 19 -6 19 -6 0 -7 5
-4 10 3 6 -1 10 -10 10 -9 0 -13 5 -10 10 5 8 11 8 19 1 7 -6 17 -7 21 -3 5 4
5 2 2 -4 -9 -15 48 -55 67 -48 9 3 16 1 16 -6 0 -6 5 -8 10 -5 6 3 10 4 10 1
0 -3 -13 -12 -30 -21 -28 -14 -29 -18 -25 -62 5 -52 11 -61 26 -46 7 7 5 14
-6 23 -17 14 -20 40 -5 40 9 0 14 -13 12 -31 -1 -3 14 -11 33 -16 31 -10 35
-9 50 16 16 25 16 26 -2 6 -18 -20 -59 -23 -47 -4 3 6 7 21 8 34 2 16 -1 22
-10 18 -8 -3 -14 -1 -14 5 0 11 56 10 67 -2 4 -5 3 -6 -4 -2 -6 3 -14 2 -18
-4 -3 -5 0 -10 7 -10 9 0 9 -3 -2 -10 -13 -8 -13 -10 2 -10 9 0 22 8 27 18 6
9 11 13 11 7 1 -5 3 -18 5 -28 2 -9 -1 -15 -6 -11 -13 8 -11 -10 4 -25 10 -11
9 -12 -2 -6 -10 6 -11 2 -6 -16 7 -22 7 -23 -10 -9 -11 9 -16 10 -11 3 5 -9
-1 -13 -18 -13 -16 0 -26 -6 -26 -15 0 -8 8 -15 18 -14 29 1 98 17 79 18 -23
1 -19 36 4 36 9 0 23 6 31 13 8 6 17 11 19 9 2 -1 -5 6 -16 15 -11 10 -26 16
-32 13 -7 -2 -12 1 -10 8 3 16 -152 117 -171 109 -11 -4 -13 -2 -7 8 5 9 4 11
-3 6 -7 -4 -12 -2 -12 3 0 9 -149 91 -164 91 -3 0 -8 -4 -11 -10z m399 -241
c-3 -5 -10 -7 -15 -3 -5 3 -7 10 -3 15 3 5 10 7 15 3 5 -3 7 -10 3 -15z"/>
<path d="M1663 4313 c-13 -2 -23 -8 -23 -13 0 -5 7 -7 15 -4 8 4 15 1 15 -5 0
-6 8 -11 18 -12 10 0 12 -3 4 -6 -6 -2 -10 -8 -8 -12 8 -12 -10 -32 -30 -35
-25 -4 -42 14 -36 39 5 18 4 18 -11 6 -11 -8 -15 -21 -12 -32 7 -22 -13 -26
-21 -5 -3 8 -12 17 -19 20 -11 4 -12 -1 -3 -25 10 -28 12 -29 78 -29 38 0 72
5 75 10 9 14 25 12 23 -2 -2 -7 6 -13 17 -13 15 0 20 7 20 25 0 22 -5 25 -33
25 -24 0 -29 2 -19 10 27 21 28 45 1 55 -14 6 -26 9 -27 9 -1 -1 -12 -4 -24
-6z m97 -103 c0 -5 -7 -10 -16 -10 -8 0 -12 5 -9 10 3 6 10 10 16 10 5 0 9 -4
9 -10z"/>
<path d="M3224 4269 c4 -35 24 -69 41 -69 17 0 20 16 4 26 -6 3 -19 20 -29 37
-18 29 -19 29 -16 6z"/>
<path d="M2946 4232 c-3 -5 1 -9 9 -9 8 0 12 4 9 9 -3 4 -7 8 -9 8 -2 0 -6 -4
-9 -8z"/>
<path d="M3372 4204 c-7 -8 -8 -14 -3 -14 10 0 25 19 20 25 -2 1 -10 -3 -17
-11z"/>
<path d="M3520 4210 c-13 -8 -12 -10 3 -10 9 0 17 5 17 10 0 12 -1 12 -20 0z"/>
<path d="M1923 4193 c4 -6 2 -13 -5 -15 -16 -6 -2 -38 17 -38 8 0 15 5 15 11
0 5 -6 7 -12 3 -10 -6 -10 -5 0 8 10 13 9 18 -5 29 -9 8 -14 9 -10 2z"/>
<path d="M3027 4169 c4 -13 9 -17 15 -11 11 11 3 32 -12 32 -4 0 -6 -9 -3 -21z"/>
<path d="M1304 4135 c-4 -8 -10 -13 -14 -10 -4 2 -15 -4 -25 -15 -10 -11 -13
-20 -7 -20 6 0 14 5 17 10 8 13 35 13 35 -1 0 -5 -4 -7 -10 -4 -17 11 -32 -5
-19 -21 6 -7 15 -11 20 -8 5 3 9 -2 9 -10 0 -9 6 -16 14 -16 23 0 28 17 9 35
-10 11 -12 19 -6 23 7 4 7 16 2 30 -10 26 -17 28 -25 7z"/>
<path d="M1930 4115 c-7 -8 -9 -15 -5 -15 4 0 2 -7 -5 -16 -12 -13 -10 -14 13
-3 29 13 31 17 18 37 -6 10 -10 10 -21 -3z"/>
<path d="M1168 4032 c-67 -58 -82 -77 -73 -92 7 -11 65 9 65 22 0 5 5 6 10 3
17 -11 11 -25 -17 -38 -16 -6 -32 -16 -36 -22 -5 -6 -6 -1 -2 10 5 16 4 18 -6
8 -7 -7 -17 -13 -22 -13 -4 0 -5 6 -1 13 4 6 -2 3 -14 -7 -26 -23 -29 -11 -5
18 23 29 -34 -30 -82 -85 -69 -78 -108 -128 -162 -206 -41 -59 -50 -79 -41
-90 8 -11 7 -12 -5 -7 -10 3 -20 -2 -27 -16 -8 -15 -8 -20 -1 -16 6 4 11 3 11
-2 0 -5 9 -19 20 -32 l20 -23 0 31 c0 22 -5 32 -15 32 -8 0 -15 5 -15 11 0 5
4 8 9 4 5 -3 12 -1 16 5 3 5 22 10 41 10 19 0 34 5 34 10 0 7 7 7 21 -1 20
-10 21 -9 17 16 -4 21 -1 28 16 35 13 5 15 9 6 9 -10 1 -4 10 15 25 17 13 27
27 23 31 -4 4 -2 17 4 29 10 20 10 20 -11 -1 -24 -25 -26 -26 -56 -13 -13 5
-27 2 -40 -9 -13 -10 -12 -7 4 12 14 15 27 23 30 19 8 -12 43 -24 36 -13 -3 5
-1 12 5 16 6 4 7 12 3 18 -14 22 -11 35 13 58 13 12 21 26 17 32 -3 6 -1 7 4
4 6 -4 19 6 29 21 22 34 44 56 44 44 0 -5 -3 -12 -7 -16 -5 -4 -8 -13 -8 -19
-1 -7 -7 -11 -14 -9 -8 2 -11 -3 -8 -12 4 -9 -2 -16 -15 -19 -14 -4 -18 -11
-13 -25 3 -11 1 -23 -4 -27 -13 -7 8 -45 26 -45 18 0 21 23 5 48 -12 18 -12
22 -1 22 8 0 23 8 34 17 16 13 17 15 3 10 -24 -8 -23 9 2 35 10 12 18 24 15
27 -2 4 1 13 7 21 8 12 9 11 4 -4 -6 -16 -4 -17 9 -6 13 10 15 9 15 -9 0 -12
-4 -20 -9 -16 -6 3 -15 -5 -22 -17 -12 -22 -11 -22 12 -7 13 9 34 22 47 30 12
8 20 19 18 26 -3 7 0 15 6 19 7 4 8 3 4 -4 -5 -8 -2 -10 8 -6 9 3 15 9 14 12
-1 4 3 17 10 30 10 18 10 22 0 20 -18 -4 -17 24 1 30 8 3 11 0 7 -7 -4 -6 -2
-11 3 -11 6 0 11 5 11 11 0 6 9 4 21 -5 25 -17 49 -11 49 13 0 9 5 22 10 29 7
9 7 9 -2 2 -21 -17 -28 -11 -21 20 3 17 1 30 -4 30 -6 0 -10 -8 -10 -17 0 -35
-3 -44 -13 -38 -5 3 -10 1 -10 -4 0 -6 -5 -11 -11 -11 -5 0 -7 5 -4 10 4 6 3
9 -2 8 -4 -2 -9 2 -10 7 -1 6 4 9 11 7 7 -1 19 5 26 13 9 11 9 15 1 15 -7 0
-9 5 -6 10 11 17 2 11 -67 -48z m31 -15 c8 -11 6 -13 -9 -12 -11 1 -23 5 -27
10 -5 4 -2 5 5 1 6 -4 12 -2 12 3 0 15 5 14 19 -2z m-42 -30 c0 -7 -6 -18 -14
-25 -9 -9 -13 -10 -13 -1 0 8 -5 7 -17 -2 -16 -13 -17 -12 -4 3 7 10 17 16 21
13 4 -3 10 2 14 10 7 18 13 19 13 2z m-127 -181 c0 -2 -9 -6 -20 -9 -11 -3
-18 -1 -14 4 5 9 34 13 34 5z m-105 -55 c-3 -5 -1 -12 5 -16 6 -4 8 -11 4 -16
-9 -15 -34 10 -27 27 3 8 9 14 15 14 5 0 7 -4 3 -9z m-7 -96 c0 -15 -8 -30
-19 -36 -11 -5 -19 -14 -19 -20 0 -6 -7 -17 -15 -25 -13 -14 -15 -13 -16 3 0
14 -2 15 -7 3 -4 -8 -18 -16 -32 -17 l-25 -3 22 13 c30 17 74 77 66 90 -4 6 0
8 10 4 10 -3 17 -2 17 3 0 6 4 10 9 10 5 0 9 -11 9 -25z m-68 -15 c0 -5 -5
-10 -11 -10 -5 0 -7 5 -4 10 3 6 8 10 11 10 2 0 4 -4 4 -10z m-26 -35 c-4 -8
-11 -15 -16 -15 -6 0 -5 6 2 15 7 8 14 15 16 15 2 0 1 -7 -2 -15z"/>
<path d="M850 3600 c0 -5 5 -10 10 -10 6 0 10 5 10 10 0 6 -4 10 -10 10 -5 0
-10 -4 -10 -10z"/>
<path d="M1406 4082 c-3 -5 -4 -17 -2 -28 4 -28 41 -25 42 4 1 18 -1 20 -12
11 -13 -11 -18 -6 -15 14 1 9 -7 9 -13 -1z"/>
<path d="M3545 4080 c-3 -5 -3 -14 0 -20 3 -6 -1 -7 -9 -4 -9 3 -16 1 -16 -5
0 -17 47 -13 54 5 10 27 -14 48 -29 24z"/>
<path d="M3715 4079 c-4 -6 -14 -8 -22 -5 -20 8 -6 -12 19 -25 15 -8 19 -8 14
0 -10 15 7 14 22 -1 7 -7 12 -8 12 -2 0 6 -10 16 -22 22 -13 6 -18 11 -12 11
7 1 22 -8 35 -18 l24 -20 -25 -10 c-14 -5 -18 -10 -10 -10 10 -1 16 -11 15
-28 0 -24 4 -28 27 -28 20 1 28 -5 33 -23 5 -20 8 -22 21 -11 20 16 42 20 50
8 6 -11 34 -12 34 -1 0 10 -132 117 -141 115 -4 -2 -11 6 -14 17 -7 22 -49 28
-60 9z m81 -50 c-1 -25 31 -50 42 -33 5 7 15 3 32 -12 24 -23 24 -24 2 -19
-12 2 -22 -1 -22 -6 0 -6 -5 -7 -10 -4 -6 4 -8 11 -5 16 4 5 -1 9 -10 9 -31 0
-58 44 -38 63 9 10 10 9 9 -14z m29 -10 c11 -17 -1 -21 -15 -4 -8 9 -8 15 -2
15 6 0 14 -5 17 -11z m-40 -39 c3 -5 1 -10 -4 -10 -6 0 -11 5 -11 10 0 6 2 10
4 10 3 0 8 -4 11 -10z"/>
<path d="M3026 4028 c-8 -32 -26 -176 -26 -199 0 -10 5 -19 10 -19 7 0 8 13 4
35 -5 28 -3 35 9 35 13 0 15 12 11 73 -2 48 -1 65 6 52 8 -18 9 -17 9 7 1 34
-17 46 -23 16z"/>
<path d="M1250 3939 c0 -4 -7 -5 -17 -2 -11 4 -14 3 -9 -5 6 -11 -5 -16 -26
-13 -4 0 -6 -8 -5 -19 1 -11 6 -20 12 -21 73 -7 79 -5 81 28 1 23 -3 33 -17
36 -11 3 -19 1 -19 -4z m25 -40 c10 -15 -1 -23 -20 -15 -9 3 -13 10 -10 16 8
13 22 13 30 -1z"/>
<path d="M1951 3941 c-8 -5 -9 -11 -3 -15 5 -3 12 1 16 9 6 17 6 18 -13 6z"/>
<path d="M3847 3916 c-11 -29 -8 -34 26 -39 33 -5 61 8 51 24 -3 5 2 6 11 3
12 -5 13 -9 4 -20 -8 -10 -8 -14 0 -14 6 0 11 6 12 13 0 6 5 2 11 -10 6 -13
15 -23 20 -23 4 0 8 -8 8 -18 0 -10 5 -23 12 -30 9 -9 9 -12 -2 -12 -12 0 -13
-2 -1 -9 10 -6 11 -13 2 -29 -14 -26 -14 -69 -1 -77 6 -4 15 7 21 24 6 17 20
33 31 36 17 6 18 9 5 23 -8 10 -17 24 -20 32 -4 11 -6 9 -6 -5 -1 -18 -3 -17
-14 5 -14 26 -19 65 -8 54 3 -3 7 -10 7 -15 1 -5 2 -13 3 -19 0 -5 5 -9 10 -7
10 2 71 -70 71 -85 0 -5 12 -20 27 -34 15 -14 20 -23 12 -21 -8 2 -11 2 -6 0
4 -3 5 -9 1 -14 -3 -5 -2 -9 3 -8 22 4 32 -2 27 -16 -4 -8 -11 -12 -17 -8 -5
3 -7 1 -4 -4 4 -6 0 -14 -9 -17 -13 -5 -15 -2 -11 15 3 13 -2 28 -13 39 -13
13 -15 20 -7 24 7 2 4 5 -5 5 -10 1 -18 6 -18 12 0 5 6 7 13 3 6 -4 3 2 -7 14
-24 27 -26 27 -21 2 2 -12 -2 -23 -10 -26 -7 -3 -11 -13 -8 -22 3 -13 2 -14
-4 -4 -16 21 -43 3 -43 -29 0 -25 4 -28 25 -27 14 1 25 8 25 15 0 7 9 17 19
22 14 8 20 7 25 -5 3 -8 2 -12 -4 -9 -22 14 4 -25 27 -40 18 -12 23 -13 18 -4
-6 11 -5 12 6 2 17 -17 30 -16 23 1 -3 7 2 20 10 28 13 14 6 27 -64 119 -43
57 -96 119 -119 138 -22 19 -41 41 -41 48 0 18 -13 16 -43 -7 l-25 -20 -14 22
c-13 20 -15 20 -21 4z m68 -26 c-3 -5 -11 -10 -16 -10 -6 0 -7 5 -4 10 3 6 11
10 16 10 6 0 7 -4 4 -10z m135 -141 c0 -6 -4 -7 -10 -4 -5 3 -10 2 -10 -3 0
-6 -7 -12 -15 -16 -20 -7 -19 8 1 28 16 16 34 13 34 -5z"/>
<path d="M3940 3856 c0 -11 30 -39 36 -34 2 3 -5 13 -16 23 -11 10 -20 15 -20
11z"/>
<path d="M1121 3834 c0 -11 3 -14 6 -6 3 7 2 16 -1 19 -3 4 -6 -2 -5 -13z"/>
<path d="M3922 3819 c2 -7 10 -15 17 -17 8 -3 12 1 9 9 -2 7 -10 15 -17 17 -8
3 -12 -1 -9 -9z"/>
<path d="M1917 3813 c-4 -3 -7 -19 -7 -34 0 -21 4 -27 15 -23 9 4 15 19 15 35
0 28 -9 37 -23 22z"/>
<path d="M1087 3803 c9 -3 3 -15 -17 -35 -17 -16 -30 -35 -30 -41 0 -7 4 -6
10 3 8 13 10 12 10 -2 0 -10 7 -18 15 -18 8 0 15 5 15 11 0 7 9 20 21 30 26
23 18 59 -14 58 -12 0 -16 -3 -10 -6z"/>
<path d="M1986 3745 c-3 -9 -4 -20 -1 -25 3 -4 -2 -11 -11 -14 -8 -3 -13 -2
-10 2 2 4 -21 8 -51 9 -53 2 -67 -7 -20 -14 12 -2 27 -10 33 -18 10 -13 15
-13 40 0 16 8 37 12 46 9 16 -5 16 -3 1 28 -21 43 -20 42 -27 23z"/>
<path d="M1120 3738 c0 -9 -6 -19 -12 -21 -10 -4 -10 -6 0 -6 14 -1 28 26 18
36 -3 4 -6 -1 -6 -9z"/>
<path d="M1945 3740 c-3 -5 -1 -10 4 -10 6 0 11 5 11 10 0 6 -2 10 -4 10 -3 0
-8 -4 -11 -10z"/>
<path d="M3227 3723 c-10 -9 -9 -23 1 -23 5 0 9 7 9 15 0 17 -1 18 -10 8z"/>
<path d="M3040 3705 c0 -8 8 -15 18 -15 13 0 14 2 3 9 -11 7 -11 9 0 14 10 4
9 6 -3 6 -10 1 -18 -6 -18 -14z"/>
<path d="M3088 3703 c7 -3 16 -2 19 1 4 3 -2 6 -13 5 -11 0 -14 -3 -6 -6z"/>
<path d="M1760 3690 c0 -5 9 -10 20 -10 11 0 20 5 20 10 0 6 -9 10 -20 10 -11
0 -20 -4 -20 -10z"/>
<path d="M1798 3662 c-25 -2 -38 -8 -38 -18 0 -12 4 -13 21 -4 19 10 20 10 10
-8 -6 -11 -16 -23 -23 -25 -7 -3 -3 -6 8 -6 14 -1 24 7 28 22 4 15 8 18 14 10
6 -9 11 -7 20 7 14 23 8 26 -40 22z"/>
<path d="M3330 3650 c0 -6 7 -10 15 -10 8 0 15 2 15 4 0 2 -7 6 -15 10 -8 3
-15 1 -15 -4z"/>
<path d="M3325 3591 c-3 -8 -2 -17 2 -20 4 -3 13 -15 19 -26 13 -23 42 -31 57
-16 8 8 1 11 -23 11 -19 0 -30 4 -24 8 7 4 12 19 12 34 0 20 -5 26 -19 25 -10
-1 -21 -8 -24 -16z"/>
<path d="M4178 3604 c0 -5 -2 -13 -3 -19 -2 -5 -3 -19 -4 -30 -1 -18 -3 -18
-11 -3 -7 10 -18 14 -31 11 -15 -4 -27 1 -40 18 -17 22 -19 23 -35 7 -25 -25
-8 -38 47 -35 l49 3 7 -38 c3 -21 10 -38 16 -38 7 0 7 -4 -1 -12 -7 -7 -12
-22 -12 -35 0 -17 4 -21 17 -16 12 5 15 2 10 -9 -4 -12 -1 -14 14 -11 10 3 19
9 19 13 0 5 3 17 6 27 4 11 3 14 -3 7 -4 -6 -15 -11 -25 -11 -14 0 -14 3 3 26
21 30 16 71 -9 71 -12 0 -13 -3 -4 -12 16 -16 15 -28 -3 -28 -18 0 -19 29 -1
52 12 17 14 17 30 -1 9 -10 16 -25 14 -32 -2 -8 4 -13 13 -13 9 1 16 -5 16
-13 0 -8 -7 -11 -19 -7 -10 3 -18 0 -18 -6 0 -7 9 -11 23 -8 16 3 23 0 23 -13
0 -9 -5 -15 -11 -13 -6 3 -11 -4 -11 -14 0 -10 6 -19 13 -19 7 0 10 4 8 8 -3
4 2 10 11 13 12 4 15 2 11 -9 -4 -8 0 -18 8 -22 7 -5 15 -21 17 -38 2 -20 8
-29 18 -27 11 2 10 -2 -3 -12 -19 -15 -16 -56 4 -56 5 0 9 -6 9 -14 0 -8 11
-28 25 -44 31 -36 31 -37 3 -39 -13 0 -17 1 -10 4 10 4 9 9 -4 24 -19 22 -34
16 -34 -12 0 -13 10 -24 30 -30 16 -6 27 -15 24 -20 -3 -5 -2 -9 3 -9 12 1 46
50 34 50 -6 0 -8 7 -5 15 4 10 0 15 -15 15 -12 0 -21 5 -21 11 0 6 7 8 16 5
10 -4 13 -2 7 7 -4 6 -8 18 -9 25 -1 7 -12 31 -23 53 -12 22 -21 46 -21 55 0
9 -5 12 -12 8 -6 -4 -8 -3 -5 4 11 17 -4 44 -21 37 -12 -4 -13 -3 -2 10 10 12
9 16 -4 21 -9 3 -14 10 -11 14 3 5 0 14 -7 22 -7 7 -14 20 -16 28 -2 8 -12 23
-23 32 -11 9 -18 20 -17 25 2 5 -7 19 -19 33 -13 13 -24 20 -25 14z m16 -20
c3 -8 2 -12 -4 -9 -6 3 -10 10 -10 16 0 14 7 11 14 -7z m163 -314 c14 -36 11
-52 -4 -22 -9 17 -20 32 -25 32 -5 0 -3 6 4 14 9 10 14 10 16 3 2 -7 6 -19 9
-27z m-20 -102 c-3 -8 -6 -5 -6 6 -1 11 2 17 5 13 3 -3 4 -12 1 -19z"/>
<path d="M937 3583 c3 -8 0 -19 -8 -24 -10 -6 -7 -8 11 -6 29 5 35 39 8 43
-11 1 -15 -3 -11 -13z"/>
<path d="M1672 3563 c-6 -2 -10 -9 -6 -14 3 -5 -4 -9 -15 -9 -28 0 -37 3 -33
13 5 16 -8 6 -19 -15 -10 -18 -8 -24 12 -39 17 -13 28 -15 42 -7 18 9 18 10 0
23 -17 14 -17 14 3 15 12 0 27 7 34 15 7 8 17 15 23 15 6 0 3 -6 -7 -13 -16
-12 -16 -15 -3 -26 13 -10 16 -8 22 9 4 14 11 18 19 13 6 -4 3 0 -7 10 -19 17
-40 20 -65 10z"/>
<path d="M3485 3550 c3 -5 8 -10 11 -10 2 0 4 5 4 10 0 6 -5 10 -11 10 -5 0
-7 -4 -4 -10z"/>
<path d="M1683 3505 c0 -8 4 -12 9 -9 5 3 6 10 3 15 -9 13 -12 11 -12 -6z"/>
<path d="M715 3471 c-9 -19 -11 -32 -5 -36 6 -3 10 -16 9 -28 0 -22 0 -22 -12
1 -10 22 -13 20 -43 -44 -18 -37 -31 -71 -28 -76 3 -4 1 -8 -4 -8 -9 0 -45
-82 -47 -110 -1 -8 -7 -25 -14 -38 -10 -18 -10 -26 0 -38 10 -12 9 -13 -6 -8
-26 10 -14 -18 14 -32 16 -8 19 -13 9 -17 -7 -2 3 -4 22 -3 29 1 35 6 36 24 1
19 1 19 -3 2 -2 -11 -8 -20 -13 -20 -12 0 -21 30 -13 43 4 6 0 8 -10 4 -19 -7
-21 1 -7 23 9 13 12 13 24 -2 11 -15 13 -14 13 13 0 16 -4 25 -7 18 -6 -8 -9
-7 -13 2 -4 10 -6 10 -6 2 -1 -7 -5 -13 -10 -13 -6 0 -9 9 -8 19 1 13 8 18 24
16 20 -2 22 2 20 30 -1 18 -5 31 -8 29 -3 -2 -6 3 -6 11 0 9 5 11 11 6 15 -11
85 -11 92 0 3 5 -3 6 -12 2 -10 -4 -21 0 -28 9 -6 8 -18 17 -26 21 -11 4 -10
6 5 7 16 1 17 3 5 8 -11 5 -14 16 -10 37 l6 30 13 -37 c8 -26 19 -38 31 -38
11 0 23 -8 29 -17 5 -10 13 -14 17 -10 4 4 0 21 -10 37 -14 25 -15 29 -1 24 8
-3 15 -13 15 -21 0 -27 35 -9 38 20 3 22 -1 27 -17 27 -12 0 -21 -4 -21 -8 0
-10 -67 -8 -76 1 -3 3 -3 20 1 38 5 23 10 28 16 18 12 -19 11 -32 -1 -24 -5 3
-10 2 -10 -3 0 -6 6 -12 14 -15 10 -4 16 2 18 20 4 31 33 40 35 11 4 -49 27
-32 38 27 6 37 5 39 -9 20 -15 -20 -15 -19 -9 4 4 14 1 26 -8 32 -21 13 -26
11 -32 -12 -3 -12 -10 -18 -16 -14 -8 4 -6 11 4 21 14 14 21 44 10 44 -2 0
-11 -13 -20 -29z m30 -49 c-15 -16 -16 -15 -4 12 7 15 15 23 17 16 3 -7 -3
-19 -13 -28z m-116 -235 c0 -9 -2 -8 -6 1 -2 6 -10 9 -15 6 -7 -4 -8 -2 -4 5
9 13 26 5 25 -12z m-39 -67 c0 -5 -5 -10 -11 -10 -5 0 -7 5 -4 10 3 6 8 10 11
10 2 0 4 -4 4 -10z"/>
<path d="M1535 3400 c-3 -5 -1 -10 5 -10 6 0 8 -4 5 -10 -3 -5 -2 -10 4 -10 5
0 13 5 16 11 4 6 13 8 19 6 7 -3 13 1 13 9 0 16 -13 19 -22 4 -3 -5 -11 -10
-16 -10 -6 0 -7 5 -4 10 3 6 2 10 -4 10 -5 0 -13 -4 -16 -10z"/>
<path d="M802 3375 c0 -16 2 -22 5 -12 2 9 2 23 0 30 -3 6 -5 -1 -5 -18z"/>
<path d="M3576 3312 c-3 -5 1 -9 9 -9 8 0 12 4 9 9 -3 4 -7 8 -9 8 -2 0 -6 -4
-9 -8z"/>
<path d="M1430 3295 c0 -9 6 -12 15 -9 8 4 15 10 15 15 0 5 -7 9 -15 9 -8 0
-15 -7 -15 -15z"/>
<path d="M792 3244 c-7 -8 -8 -14 -3 -14 10 0 25 19 20 25 -2 1 -10 -3 -17
-11z"/>
<path d="M3570 3256 c0 -2 8 -10 18 -17 15 -13 16 -12 3 4 -13 16 -21 21 -21
13z"/>
<path d="M1273 3234 c-8 -21 13 -42 28 -27 13 13 5 43 -11 43 -6 0 -13 -7 -17
-16z"/>
<path d="M4410 3136 c0 -9 5 -16 10 -16 6 0 10 4 10 9 0 6 -4 13 -10 16 -5 3
-10 -1 -10 -9z"/>
<path d="M4424 3085 c4 -16 3 -24 0 -17 -9 20 -23 14 -17 -8 3 -11 9 -20 14
-20 5 0 9 -9 9 -19 0 -11 6 -26 14 -33 19 -20 29 -55 16 -63 -14 -8 -13 -45 1
-45 7 0 -2 -14 -20 -30 -17 -17 -29 -35 -25 -41 7 -13 44 18 44 38 0 29 26 11
28 -19 1 -27 0 -30 -9 -15 -6 9 -14 15 -19 12 -15 -9 12 -44 29 -38 11 4 10 1
-3 -9 -16 -13 -17 -16 -3 -21 10 -4 14 -13 10 -28 -4 -16 -3 -20 6 -15 9 6 11
-3 7 -33 -3 -24 0 -43 6 -47 11 -7 10 17 -7 156 -10 86 -38 219 -46 215 -4 -3
-5 5 -1 17 3 11 1 19 -4 16 -5 -4 -10 8 -11 25 -1 17 -7 35 -13 41 -8 8 -10 3
-6 -19z"/>
<path d="M1138 3083 c6 -2 18 -2 25 0 6 3 1 5 -13 5 -14 0 -19 -2 -12 -5z"/>
<path d="M1197 3084 c-16 -17 -4 -24 39 -24 32 0 44 4 42 13 -5 13 -69 22 -81
11z"/>
<path d="M3796 3075 c-6 -18 -36 -20 -36 -3 0 9 -3 9 -12 0 -10 -10 -10 -15 2
-22 8 -5 23 -10 33 -10 9 0 17 -6 17 -12 0 -7 6 -2 13 12 14 25 12 50 -3 50
-4 0 -10 -7 -14 -15z"/>
<path d="M3897 3082 c-30 -6 -8 -22 33 -22 38 0 69 19 33 21 -10 0 -25 2 -33
3 -8 1 -23 1 -33 -2z"/>
<path d="M3855 3030 c3 -5 8 -10 11 -10 2 0 4 5 4 10 0 6 -5 10 -11 10 -5 0
-7 -4 -4 -10z"/>
<path d="M791 3014 c0 -11 3 -14 6 -6 3 7 2 16 -1 19 -3 4 -6 -2 -5 -13z"/>
<path d="M601 2993 c0 -18 -5 -33 -11 -33 -5 0 -2 -8 8 -18 9 -10 22 -17 28
-15 14 5 24 50 17 70 -8 21 -23 15 -24 -9 -1 -19 -3 -17 -9 7 l-8 30 -1 -32z"/>
<path d="M823 3008 c2 -7 12 -13 22 -13 10 0 20 6 23 13 2 7 -6 12 -23 12 -17
0 -25 -5 -22 -12z"/>
<path d="M4411 3000 c0 -8 4 -24 9 -35 5 -13 9 -14 9 -5 0 8 -4 24 -9 35 -5
13 -9 14 -9 5z"/>
<path d="M4285 2951 c-3 -2 -2 -7 0 -11 6 -9 45 -1 45 9 0 7 -38 9 -45 2z"/>
<path d="M4435 2939 c-6 -17 -9 -19 -16 -8 -5 8 -9 10 -9 4 0 -13 18 -41 22
-35 19 30 26 50 19 55 -5 3 -13 -4 -16 -16z"/>
<path d="M697 2915 c6 -17 25 -15 31 3 2 7 -5 12 -17 12 -14 0 -19 -5 -14 -15z"/>
<path d="M4425 2780 c-4 -6 -4 -29 0 -51 6 -33 9 -38 21 -28 8 6 14 22 14 36
0 28 -25 59 -35 43z"/>
<path d="M4494 2596 c-3 -14 -1 -40 5 -57 14 -39 14 -93 1 -138 -12 -41 0 -70
19 -48 16 20 11 259 -6 264 -7 3 -15 -7 -19 -21z m13 -18 c-3 -8 -6 -5 -6 6
-1 11 2 17 5 13 3 -3 4 -12 1 -19z"/>
<path d="M4481 2334 c0 -11 3 -14 6 -6 3 7 2 16 -1 19 -3 4 -6 -2 -5 -13z"/>
<path d="M4500 2311 c0 -6 5 -13 10 -16 6 -3 10 1 10 9 0 9 -4 16 -10 16 -5 0
-10 -4 -10 -9z"/>
<path d="M4396 2132 c-9 -14 11 -35 25 -27 9 5 8 1 -2 -11 -19 -21 -25 -114
-8 -114 6 0 8 9 4 20 -9 27 4 25 15 -2 6 -16 7 -8 4 30 -4 41 -1 54 11 58 14
6 13 9 -5 21 -11 8 -18 19 -15 24 4 5 -1 9 -9 9 -8 0 -17 -4 -20 -8z"/>
<path d="M700 2105 c0 -18 5 -25 20 -25 23 0 24 4 10 31 -15 27 -30 24 -30 -6z"/>
<path d="M560 2090 c0 -28 -3 -32 -11 -20 -8 12 -10 10 -5 -9 3 -13 1 -32 -4
-42 -10 -19 4 -76 47 -194 29 -77 30 -81 39 -73 3 4 -2 20 -11 38 -9 18 -14
34 -11 37 3 3 12 -12 20 -32 11 -27 13 -41 6 -50 -12 -14 6 -65 22 -65 5 0 7
-3 4 -8 -6 -11 21 -72 33 -72 6 0 8 -6 5 -14 -3 -8 3 -23 14 -34 11 -11 18
-23 14 -26 -3 -3 -2 -6 2 -6 13 0 35 27 28 35 -4 5 -1 5 6 1 17 -10 26 18 12
43 -14 26 -27 27 -35 1 -10 -30 -26 -24 -23 9 2 32 32 48 54 30 15 -12 26 38
14 61 -21 39 -80 83 -112 84 -29 1 -33 4 -32 29 0 19 -4 26 -13 23 -7 -3 -13
0 -13 7 0 8 -4 7 -11 -3 -8 -12 -9 -9 -4 10 16 64 16 80 1 80 -15 0 -16 -16
-3 -37 4 -6 3 -14 -2 -17 -5 -4 -12 -2 -15 3 -8 13 0 102 10 110 14 10 16 58
4 66 -9 6 -9 10 1 16 11 7 11 9 1 9 -7 0 -17 10 -22 23 -8 19 -9 18 -10 -13z
m10 -95 c-7 -8 -9 -19 -6 -24 4 -5 2 -12 -4 -16 -5 -3 -10 3 -10 14 0 29 11
52 22 45 5 -3 4 -11 -2 -19z m86 -271 c-5 -12 -1 -14 17 -9 17 5 19 4 7 -4
-12 -9 -11 -10 7 -8 12 2 26 7 30 12 5 4 2 5 -4 1 -7 -4 -13 -2 -13 3 0 21 21
11 30 -15 15 -37 13 -57 -5 -50 -13 5 -19 -4 -17 -25 1 -3 -5 -6 -13 -6 -8 0
-12 4 -9 8 2 4 -1 11 -7 14 -5 4 -8 13 -5 21 3 8 -3 22 -13 31 -17 14 -19 43
-4 43 3 0 2 -7 -1 -16z m69 -164 c16 -17 16 -20 3 -15 -9 4 -19 13 -22 21 -7
19 -2 18 19 -6z"/>
<path d="M697 1672 c4 -10 8 -11 13 -2 6 9 9 9 13 -1 4 -10 6 -9 6 3 1 11 -6
16 -18 15 -12 -1 -17 -6 -14 -15z"/>
<path d="M680 1661 c0 -6 4 -13 10 -16 6 -3 7 1 4 9 -7 18 -14 21 -14 7z"/>
<path d="M660 2077 c0 -27 28 -57 53 -57 29 0 19 29 -15 44 -18 8 -27 15 -20
15 7 1 10 6 7 11 -11 18 -25 11 -25 -13z"/>
<path d="M4280 2019 c0 -6 -7 -9 -15 -5 -8 3 -15 1 -15 -4 0 -6 5 -10 11 -10
5 0 7 -4 4 -10 -3 -5 2 -10 12 -10 15 0 16 -2 3 -10 -8 -5 -10 -10 -5 -10 15
1 45 26 45 38 0 6 -9 16 -20 22 -15 8 -20 8 -20 -1z"/>
<path d="M3816 2005 c4 -8 8 -15 10 -15 2 0 4 7 4 15 0 8 -4 15 -10 15 -5 0
-7 -7 -4 -15z"/>
<path d="M640 1973 c-12 -14 -26 -21 -33 -16 -7 4 -7 1 2 -10 9 -11 12 -30 8
-52 -6 -34 5 -55 18 -35 3 5 0 10 -7 10 -8 0 -6 5 5 11 11 6 17 22 17 44 0 31
3 34 28 32 17 -1 26 3 25 11 -4 15 9 16 24 1 9 -9 12 -7 10 8 -2 31 -69 28
-97 -4z m40 2 c5 3 12 0 15 -6 5 -7 1 -10 -10 -7 -10 1 -20 9 -21 16 -1 7 0 8
3 2 2 -5 9 -8 13 -5z"/>
<path d="M3840 1981 c0 -9 53 -26 78 -24 37 2 41 4 36 18 -5 11 -21 15 -60 15
-30 0 -54 -4 -54 -9z"/>
<path d="M1274 1905 c-10 -26 1 -35 13 -10 6 14 7 25 2 25 -5 0 -12 -7 -15
-15z"/>
<path d="M3627 1843 c-4 -3 -7 -11 -7 -17 0 -6 5 -5 12 2 6 6 9 14 7 17 -3 3
-9 2 -12 -2z"/>
<path d="M3673 1819 c6 -23 6 -24 -10 -4 -15 20 -15 20 -9 -1 4 -14 2 -24 -8
-27 -8 -3 -22 -22 -31 -42 -17 -34 -17 -36 4 -54 11 -10 21 -25 21 -32 0 -11
2 -11 10 1 8 13 10 12 10 -2 0 -10 5 -18 10 -18 6 0 10 9 10 20 0 11 -4 20 -9
20 -14 0 -8 109 6 114 16 7 17 32 1 42 -8 5 -9 0 -5 -17z"/>
<path d="M717 1802 c-15 -6 -10 -15 33 -57 35 -34 50 -44 50 -32 0 9 -4 17
-10 17 -5 0 -10 5 -10 11 0 14 -26 39 -40 39 -7 0 -10 7 -6 15 3 8 4 15 3 14
-1 0 -10 -4 -20 -7z"/>
<path d="M777 1804 c-14 -14 -7 -35 11 -32 9 2 17 10 17 17 0 16 -18 25 -28
15z m23 -14 c0 -5 -4 -10 -10 -10 -5 0 -10 5 -10 10 0 6 5 10 10 10 6 0 10 -4
10 -10z"/>
<path d="M3564 1738 c-19 -23 -19 -23 2 -5 11 9 24 14 29 10 4 -5 5 -2 1 5 -9
16 -10 16 -32 -10z"/>
<path d="M3506 1664 c-3 -7 2 -10 15 -7 10 3 19 0 19 -6 0 -6 9 -11 20 -11 11
0 20 5 20 10 0 6 -9 10 -20 10 -11 0 -20 4 -20 8 0 13 -29 10 -34 -4z"/>
<path d="M4155 1604 c-3 -20 -4 -39 -1 -42 3 -3 6 2 6 12 0 10 7 24 15 32 19
19 19 34 1 34 -8 0 -17 -15 -21 -36z"/>
<path d="M4196 1624 c-9 -23 3 -36 25 -29 20 7 23 0 20 -42 -1 -11 3 -24 8
-28 6 -3 11 -11 11 -16 0 -6 -5 -7 -12 -3 -7 5 -8 3 -3 -6 5 -8 3 -11 -6 -8
-8 3 -13 12 -11 20 1 9 -5 21 -13 28 -8 7 -15 21 -15 31 0 29 -14 23 -29 -13
-18 -40 -26 -93 -10 -65 14 24 27 21 24 -5 -4 -42 -5 -43 -15 -28 -6 9 -10 10
-10 3 0 -20 18 -24 28 -6 12 21 42 26 42 6 0 -13 -3 -13 -15 -3 -12 10 -15 10
-15 -3 0 -27 31 -12 55 28 22 37 24 62 5 50 -16 -10 -7 79 9 91 13 10 11 12
-9 10 -14 0 -28 -8 -32 -16 -5 -12 -7 -12 -7 3 -1 21 -17 22 -25 1z m17 -107
c-5 -8 -8 -7 -11 1 -2 7 -9 9 -14 6 -7 -4 -8 -2 -4 4 4 6 13 9 21 6 8 -4 12
-11 8 -17z"/>
<path d="M797 1571 c-4 -17 -3 -21 5 -13 5 5 8 16 6 23 -3 8 -7 3 -11 -10z"/>
<path d="M1611 1571 c-11 -7 -11 -9 0 -14 11 -4 10 -8 -5 -19 -14 -11 -16 -17
-7 -22 7 -5 15 -5 18 -2 4 3 0 6 -8 7 -8 0 -5 4 6 8 14 6 24 3 32 -8 9 -12 14
-13 24 -4 13 13 39 7 39 -9 0 -6 -7 -8 -15 -5 -8 4 -17 1 -21 -5 -4 -7 -3 -8
5 -4 6 4 14 0 17 -8 3 -9 11 -16 16 -16 6 0 8 6 5 14 -3 7 -1 18 4 23 7 7 -1
14 -23 23 -58 21 -77 33 -72 42 7 10 3 10 -15 -1z"/>
<path d="M753 1523 l-21 -22 46 -73 c40 -62 87 -129 112 -161 4 -4 6 3 5 15
-2 14 -8 22 -16 20 -11 -3 -12 -1 -1 10 17 17 32 -5 32 -50 0 -25 5 -35 23
-41 12 -5 21 -12 21 -17 -1 -5 10 -22 23 -39 14 -17 23 -22 19 -12 -3 11 -2
16 4 12 6 -3 10 -2 10 3 0 14 -38 45 -48 38 -5 -3 -9 1 -9 8 0 16 23 10 49
-12 13 -11 17 -25 13 -50 -2 -23 -1 -32 6 -25 12 12 21 85 9 78 -10 -6 -32 20
-24 28 4 4 -6 5 -22 4 -18 -1 -29 3 -29 11 0 6 4 12 8 12 13 -1 37 28 37 45 0
13 -8 16 -45 12 -38 -4 -45 -2 -45 13 0 10 -7 21 -16 24 -8 3 -13 9 -10 14 2
4 -3 13 -13 19 -14 9 -18 8 -18 -3 0 -7 5 -10 11 -7 6 3 8 3 4 -2 -4 -4 -4
-13 2 -19 5 -7 5 -18 0 -26 -7 -11 -10 -8 -15 13 -4 15 -14 27 -24 28 -10 0
-11 2 -3 6 6 2 12 9 12 15 0 6 -6 8 -14 5 -11 -4 -13 1 -10 19 3 15 0 24 -9
24 -7 0 -21 6 -32 13 -14 11 -15 16 -5 22 9 5 11 4 6 -3 -4 -7 -1 -12 9 -12
14 0 14 4 0 38 -11 27 -11 33 -1 20 16 -21 26 -23 26 -5 0 7 -8 17 -17 22 -14
8 -23 6 -40 -12z m13 -29 c-4 -9 -9 -15 -11 -12 -3 3 -3 13 1 22 4 9 9 15 11
12 3 -3 3 -13 -1 -22z m181 -196 c2 6 12 12 21 12 14 0 13 -2 -2 -13 -10 -7
-19 -24 -19 -38 -2 -29 -23 -36 -23 -8 0 10 4 15 8 13 4 -3 8 -1 8 5 0 5 -4
13 -10 16 -5 3 -10 12 -10 18 0 7 4 6 11 -3 8 -11 12 -12 16 -2z m43 -120 c0
-6 -6 -5 -15 2 -8 7 -15 14 -15 16 0 2 7 1 15 -2 8 -4 15 -11 15 -16z"/>
<path d="M1631 1492 c-8 -15 -6 -18 12 -19 12 0 16 1 8 4 -10 4 -10 7 -1 13 8
5 9 10 2 14 -6 4 -15 -2 -21 -12z"/>
<path d="M3353 1486 c-13 -7 -20 -16 -16 -19 3 -4 1 -7 -5 -7 -7 0 -12 -9 -12
-20 0 -13 7 -20 20 -20 16 0 20 7 20 30 0 17 5 29 11 28 6 -2 14 3 16 10 6 15
-5 14 -34 -2z"/>
<path d="M815 1479 c-4 -6 -1 -15 6 -20 8 -5 11 -9 6 -9 -4 0 7 -13 25 -29 18
-16 35 -27 38 -25 2 3 -2 9 -10 14 -11 7 -12 10 -2 10 7 0 10 6 7 13 -4 6 -1
5 7 -3 7 -9 21 -14 31 -12 12 3 17 -3 17 -22 0 -14 -5 -28 -12 -32 -7 -5 -8
-3 -3 6 5 8 4 11 -3 6 -5 -3 -13 0 -15 6 -4 9 -6 8 -6 -2 -1 -20 32 -40 48
-30 7 4 14 29 16 56 1 27 1 43 -2 37 -3 -7 -12 -13 -21 -13 -12 0 -13 3 -5 11
17 17 -18 46 -58 46 -19 0 -26 -2 -16 -4 24 -6 22 -29 -4 -36 -15 -4 -19 -2
-15 8 7 18 -20 40 -29 24z m96 -36 c13 -16 12 -17 -3 -4 -10 7 -18 15 -18 17
0 8 8 3 21 -13z"/>
<path d="M3433 1473 c9 -2 23 -2 30 0 6 3 -1 5 -18 5 -16 0 -22 -2 -12 -5z"/>
<path d="M3265 1451 c-3 -5 -1 -12 4 -15 5 -3 11 1 15 9 6 16 -9 21 -19 6z"/>
<path d="M1764 1442 c-13 -8 -16 -62 -4 -62 4 0 7 10 6 22 0 11 5 22 12 24 7
1 8 0 3 -2 -5 -3 -7 -14 -4 -24 3 -11 9 -17 14 -15 4 3 5 13 2 22 -5 13 -2 15
18 10 l24 -6 -25 19 c-28 22 -31 23 -46 12z"/>
<path d="M825 1420 c-3 -5 -1 -10 4 -10 6 0 11 5 11 10 0 6 -2 10 -4 10 -3 0
-8 -4 -11 -10z"/>
<path d="M3261 1413 c-17 -9 -30 -18 -27 -20 2 -3 15 1 28 8 21 11 22 11 9 -4
-7 -10 -28 -17 -47 -17 -32 0 -59 -20 -36 -28 7 -2 12 -9 12 -15 0 -8 -4 -7
-12 1 -17 17 -31 15 -24 -4 5 -12 1 -14 -15 -9 -15 5 -19 4 -15 -4 10 -16 26
-14 70 10 52 27 76 32 76 13 0 -17 37 -33 62 -26 22 5 24 22 3 22 -19 0 -35
32 -29 57 8 28 -16 35 -55 16z"/>
<path d="M4187 1410 c3 -11 9 -17 14 -15 10 7 1 35 -11 35 -5 0 -6 -9 -3 -20z"/>
<path d="M3343 1404 c9 -3 17 -14 17 -24 0 -10 -8 -21 -17 -24 -14 -4 -14 -4
2 -3 14 2 20 10 20 27 0 17 -6 25 -20 27 -16 1 -16 1 -2 -3z"/>
<path d="M4154 1384 c-12 -47 -31 -58 -98 -59 -47 0 -61 -3 -62 -15 0 -9 1
-10 3 -2 3 6 10 12 17 12 23 0 26 -13 6 -27 -21 -15 -27 -43 -10 -43 18 0 52
41 46 56 -4 12 -2 12 14 4 18 -10 19 -13 5 -34 -8 -13 -25 -28 -38 -33 -14 -7
-23 -21 -25 -37 -1 -15 -9 -39 -17 -54 -11 -19 -14 -21 -10 -6 4 14 1 21 -10
21 -11 0 -13 -8 -9 -31 5 -29 4 -30 -10 -11 -8 11 -12 23 -10 27 3 5 1 8 -4 8
-5 0 -12 -9 -15 -21 -4 -13 -10 -18 -17 -14 -9 6 -9 10 1 16 19 12 8 18 -37
21 l-39 3 3 -39 c3 -45 9 -56 21 -37 6 9 11 10 15 2 4 -6 2 -11 -5 -11 -6 0
-9 -8 -6 -20 3 -11 0 -23 -5 -27 -6 -3 -8 -2 -5 3 3 6 1 16 -5 24 -8 12 -9 12
-4 -2 3 -11 0 -18 -7 -18 -7 -1 -1 -7 12 -14 20 -11 21 -14 6 -19 -24 -10 -27
-9 -19 6 5 9 4 9 -6 0 -7 -7 -25 -9 -41 -6 -22 4 -29 2 -29 -10 0 -24 14 -27
45 -11 24 13 26 12 15 -1 -20 -25 6 -17 39 11 17 14 28 31 24 36 -3 6 -2 8 4
5 12 -8 66 46 56 56 -3 4 0 7 8 7 25 0 69 54 74 89 4 37 11 48 22 37 4 -4 1
-11 -6 -15 -8 -5 -9 -11 -3 -15 5 -3 26 14 46 38 20 25 32 47 27 51 -5 3 -14
-3 -20 -12 -6 -10 -11 -13 -11 -7 0 16 27 37 38 30 6 -3 15 1 22 9 7 8 9 15 4
15 -5 0 0 7 10 15 11 8 16 15 10 15 -5 0 -2 6 7 13 14 11 15 15 3 31 -12 17
-13 17 -20 -10z m-44 -68 c0 -11 -19 -15 -25 -6 -3 5 1 10 9 10 9 0 16 -2 16
-4z m-238 -174 c18 -25 50 -36 59 -20 4 7 11 9 16 5 4 -5 1 -12 -6 -16 -7 -5
-11 -13 -8 -19 10 -15 -30 -45 -49 -38 -13 5 -14 10 -6 18 13 13 4 39 -20 56
-10 7 -18 17 -18 23 0 15 18 10 32 -9z m-75 -148 c-3 -3 -12 -4 -19 -1 -8 3
-5 6 6 6 11 1 17 -2 13 -5z"/>
<path d="M3896 1084 c-4 -9 -4 -19 -1 -22 7 -8 35 19 29 29 -8 14 -21 11 -28
-7z"/>
<path d="M4085 1389 c-4 -6 -5 -13 -2 -16 7 -7 27 6 27 18 0 12 -17 12 -25 -2z"/>
<path d="M1925 1370 c3 -5 -1 -10 -10 -10 -9 0 -13 -4 -10 -10 3 -5 0 -10 -9
-10 -8 0 -16 4 -18 9 -1 4 -12 5 -23 0 -19 -7 -19 -8 2 -8 12 -1 23 -7 26 -13
3 -9 11 -7 27 7 13 11 20 14 16 8 -9 -16 2 -16 32 0 l23 13 -26 12 c-32 15
-38 15 -30 2z"/>
<path d="M4111 1364 c-7 -8 -11 -17 -9 -20 3 -2 13 5 23 16 10 11 14 20 9 20
-5 -1 -15 -8 -23 -16z"/>
<path d="M1958 1335 c-8 -8 3 -55 13 -55 4 0 11 5 14 10 4 6 11 7 17 4 6 -4
14 0 19 7 12 20 -46 51 -63 34z"/>
<path d="M3085 1320 c-3 -5 1 -10 9 -10 8 0 18 5 21 10 3 6 -1 10 -9 10 -8 0
-18 -4 -21 -10z"/>
<path d="M1020 1290 c0 -33 21 -40 46 -16 24 25 17 46 -16 46 -27 0 -30 -3
-30 -30z"/>
<path d="M1917 1313 c-10 -9 -8 -46 3 -63 7 -12 12 -12 21 -3 9 9 9 16 1 26
-7 8 -9 17 -5 20 3 4 1 7 -6 7 -7 0 -9 5 -6 10 7 11 2 13 -8 3z"/>
<path d="M1986 1283 c-9 -9 -7 -33 3 -33 12 0 22 28 12 34 -5 3 -11 3 -15 -1z"/>
<path d="M3033 1243 c0 -37 0 -38 9 -10 6 18 7 32 1 38 -5 5 -9 -6 -10 -28z"/>
<path d="M1998 1246 c-10 -7 -18 -19 -18 -26 0 -8 8 -22 18 -33 12 -15 14 -21
4 -24 -6 -3 -10 -9 -7 -14 3 -5 1 -36 -5 -69 -6 -33 -8 -65 -4 -71 11 -18 24
11 25 56 l2 40 7 -35 c6 -27 8 -29 9 -11 0 14 -4 40 -11 58 -10 28 -10 36 2
43 16 10 25 60 11 60 -5 0 -12 -8 -14 -17 -3 -10 -4 -1 -2 20 1 20 2 37 1 37
0 0 -9 -7 -18 -14z"/>
<path d="M1020 1230 c0 -5 5 -10 11 -10 5 0 7 5 4 10 -3 6 -8 10 -11 10 -2 0
-4 -4 -4 -10z"/>
<path d="M3991 1224 c0 -11 3 -14 6 -6 3 7 2 16 -1 19 -3 4 -6 -2 -5 -13z"/>
<path d="M1926 1197 c-14 -10 -17 -21 -11 -45 3 -18 11 -30 16 -27 12 8 22
-40 15 -70 -4 -14 -11 -23 -16 -20 -6 3 -10 -3 -10 -14 0 -12 5 -21 10 -21 6
0 10 -15 10 -32 1 -29 2 -31 11 -14 17 29 18 187 1 213 -7 12 -11 27 -7 33 8
14 3 13 -19 -3z m31 -179 c-3 -7 -5 -2 -5 12 0 14 2 19 5 13 2 -7 2 -19 0 -25z"/>
<path d="M1040 1170 c0 -13 11 -13 30 0 12 8 11 10 -7 10 -13 0 -23 -4 -23
-10z"/>
<path d="M1085 1163 c-24 -6 -55 -32 -55 -47 0 -6 14 -11 30 -11 17 -1 30 4
30 12 0 7 -9 10 -21 8 -13 -3 -19 0 -16 8 7 21 31 18 45 -4 17 -26 4 -41 -33
-41 -18 0 -23 -3 -14 -9 7 -4 17 -5 21 -3 4 3 5 -2 2 -10 -3 -9 -2 -16 4 -16
12 0 38 30 26 30 -5 0 -4 4 3 8 15 10 22 74 8 77 -5 1 -19 0 -30 -2z"/>
<path d="M3042 1135 c0 -16 2 -22 5 -12 2 9 2 23 0 30 -3 6 -5 -1 -5 -18z"/>
<path d="M1128 1073 c7 -3 16 -2 19 1 4 3 -2 6 -13 5 -11 0 -14 -3 -6 -6z"/>
<path d="M1920 1070 c0 -5 5 -10 10 -10 6 0 10 5 10 10 0 6 -4 10 -10 10 -5 0
-10 -4 -10 -10z"/>
<path d="M1090 1041 c0 -5 11 -12 25 -15 14 -4 25 -12 25 -19 0 -7 14 -24 30
-37 17 -14 46 -38 65 -54 58 -49 147 -106 156 -100 5 3 9 0 9 -6 0 -7 7 -9 16
-6 12 4 15 2 11 -9 -7 -17 9 -30 18 -15 9 14 -14 42 -28 33 -6 -3 -7 -1 -3 5
4 7 -1 10 -14 7 -11 -2 -18 0 -15 4 2 5 -5 11 -16 14 -13 4 -18 10 -13 18 4 8
3 10 -5 5 -6 -4 -8 -13 -5 -19 4 -7 3 -8 -2 -4 -4 4 -9 18 -9 29 0 12 -6 23
-13 25 -7 3 -10 -1 -6 -11 3 -9 1 -16 -6 -16 -6 0 -8 5 -5 10 3 6 1 10 -5 10
-7 0 -6 5 2 14 7 7 17 13 23 13 37 0 47 4 41 19 -4 11 1 18 14 21 11 3 20 14
20 24 0 20 2 19 -122 25 -27 1 -48 -3 -48 -8 0 -6 11 -7 25 -4 18 5 24 3 23
-6 -2 -8 5 -12 20 -10 12 2 30 -5 40 -14 15 -16 15 -17 0 -12 -10 4 -19 1 -22
-7 -6 -16 -44 -12 -60 6 -8 9 -7 10 6 6 12 -4 15 -2 11 8 -3 8 -9 12 -14 9 -5
-3 -22 9 -39 26 -20 21 -30 26 -30 15 0 -8 5 -15 11 -15 5 0 7 -4 4 -10 -3 -5
-1 -10 6 -10 7 0 10 -2 8 -5 -8 -7 -49 7 -44 15 7 11 -42 53 -65 57 -11 2 -20
-1 -20 -6z m151 -97 c9 -8 26 -16 37 -17 16 -1 18 -4 9 -18 -9 -15 -14 -13
-44 14 -18 17 -33 32 -33 34 0 8 15 2 31 -13z"/>
<path d="M3713 1003 c-7 -2 -13 -11 -13 -19 0 -17 -17 -19 -23 -1 -3 7 -6 5
-6 -5 -1 -11 6 -18 17 -19 10 0 12 -3 5 -6 -21 -8 -15 -22 7 -16 13 3 20 0 20
-8 1 -9 4 -8 11 4 6 10 8 21 6 24 -3 3 -2 16 3 29 10 24 2 29 -27 17z"/>
<path d="M1414 954 c2 -37 0 -42 -19 -40 -11 2 -29 0 -38 -3 -16 -6 -14 -11
13 -41 17 -19 34 -35 38 -35 4 -1 17 -7 30 -14 25 -13 52 -9 52 9 0 7 -8 9
-20 5 -21 -7 -23 -2 -22 45 1 22 0 22 -6 5 -7 -19 -32 -29 -32 -12 0 4 0 11 0
16 0 5 9 13 20 16 25 8 26 36 1 66 l-19 24 2 -41z"/>
<path d="M3790 953 c0 -13 -3 -14 -12 -5 -17 17 -23 15 -36 -13 -8 -17 -17
-23 -32 -20 -11 2 -20 0 -20 -6 0 -5 5 -9 10 -9 6 0 10 -5 10 -11 0 -5 -4 -8
-9 -5 -5 3 -21 -6 -35 -19 -32 -30 -36 -31 -29 -6 3 11 13 21 24 24 10 3 19
13 19 22 0 15 -1 15 -16 1 -17 -18 -34 -21 -34 -7 0 5 8 12 18 14 15 4 15 5 0
6 -21 1 -48 -26 -47 -47 1 -15 2 -15 6 1 5 18 23 24 23 7 0 -14 -42 -50 -52
-44 -5 3 -8 2 -7 -3 3 -19 -2 -23 -15 -11 -8 7 -13 15 -11 18 6 10 -82 5 -96
-6 -27 -22 -59 -27 -59 -10 0 10 10 16 28 17 26 2 26 2 3 6 -17 3 -29 -1 -38
-14 -8 -10 -17 -17 -21 -15 -4 1 -7 -3 -7 -10 0 -16 57 -30 69 -18 6 6 18 10
29 10 10 0 16 4 13 9 -3 5 8 11 25 15 47 9 53 8 39 -9 -7 -8 -19 -15 -26 -15
-8 0 -13 -5 -11 -11 1 -6 -4 -14 -12 -17 -9 -3 -11 0 -6 8 6 9 4 11 -4 5 -9
-5 -10 -10 -2 -18 7 -7 16 -6 29 6 10 9 22 14 27 10 4 -5 5 -2 1 5 -10 17 16
25 47 13 26 -10 49 2 25 13 -7 4 -3 4 9 2 15 -3 31 4 45 20 13 13 28 24 33 24
6 0 25 14 43 30 18 17 37 30 41 30 9 0 41 34 41 43 0 4 -4 7 -10 7 -5 0 -10
-8 -10 -17z"/>
<path d="M1378 943 c7 -3 16 -2 19 1 4 3 -2 6 -13 5 -11 0 -14 -3 -6 -6z"/>
<path d="M1920 902 c0 -22 5 -44 10 -47 7 -4 8 8 4 37 -9 57 -14 61 -14 10z"/>
<path d="M2047 872 c-4 -6 2 -19 13 -29 14 -14 18 -28 15 -54 -4 -29 -1 -35
16 -36 17 -2 18 1 9 12 -6 8 -9 19 -5 25 4 6 -2 23 -12 38 -10 15 -21 33 -24
41 -4 10 -8 11 -12 3z"/>
<path d="M1535 840 c-7 -11 2 -30 13 -30 4 0 14 5 22 10 13 9 13 11 0 20 -19
12 -27 12 -35 0z"/>
<path d="M1505 830 c3 -5 8 -10 11 -10 2 0 4 5 4 10 0 6 -5 10 -11 10 -5 0 -7
-4 -4 -10z"/>
<path d="M1503 803 c-20 -8 -15 -31 10 -44 19 -11 20 -10 9 3 -7 9 -10 23 -6
32 7 17 6 17 -13 9z"/>
<path d="M3544 782 c5 -8 -1 -12 -16 -12 -13 0 -32 -7 -42 -15 -16 -12 -22
-12 -35 -2 -9 8 -12 8 -8 1 10 -17 -23 -27 -39 -13 -10 8 -18 9 -27 0 -8 -6
-16 -9 -19 -6 -2 3 -4 -8 -4 -25 0 -16 3 -27 8 -24 4 3 8 0 8 -5 0 -6 -9 -11
-20 -11 -11 0 -20 -4 -20 -10 0 -6 9 -6 25 0 40 15 105 54 105 63 0 5 -5 5
-12 1 -7 -5 -8 -3 -3 5 5 9 10 10 18 2 7 -7 21 -4 46 11 50 29 55 35 40 43 -8
5 -10 4 -5 -3z m-158 -77 c-1 -20 -3 -22 -15 -11 -7 8 -10 19 -7 25 12 19 24
12 22 -14z"/>
<path d="M1462 768 c6 -17 109 -78 120 -72 4 3 8 11 8 17 0 9 -3 8 -8 -1 -6
-9 -12 -6 -22 12 -7 14 -20 25 -29 25 -40 2 -51 5 -51 18 0 7 -5 13 -11 13 -6
0 -9 -6 -7 -12z"/>
<path d="M1546 771 c-4 -5 3 -7 14 -4 23 6 26 13 6 13 -8 0 -17 -4 -20 -9z"/>
<path d="M3034 772 c-6 -4 -17 -17 -23 -30 -11 -21 -10 -24 9 -29 17 -5 21
-12 18 -33 -3 -23 -1 -26 16 -22 14 4 18 1 14 -9 -5 -12 14 -41 24 -36 2 1 -2
-3 -9 -9 -18 -16 -16 -27 3 -20 9 4 22 2 29 -4 14 -11 141 31 129 43 -4 4 6 7
22 7 32 0 62 15 52 25 -4 4 -13 3 -20 -1 -7 -5 -24 -10 -37 -12 -14 -2 -38
-11 -53 -20 -24 -14 -32 -14 -49 -4 -11 7 -24 10 -29 7 -11 -7 -50 16 -50 29
0 4 7 3 15 -4 12 -10 15 -10 15 2 0 19 -20 38 -42 38 -14 0 -18 8 -19 38 -1
20 -1 40 0 45 1 9 -1 9 -15 -1z"/>
<path d="M1579 749 c19 -8 22 -14 18 -38 -6 -28 -3 -30 71 -61 42 -18 82 -33
87 -35 6 -1 27 -9 47 -18 20 -9 45 -14 54 -10 13 5 15 3 9 -7 -5 -8 -3 -11 4
-9 22 8 17 24 -7 27 -16 2 -22 8 -18 18 3 8 1 14 -4 14 -6 0 -10 -8 -10 -17
-1 -16 -2 -16 -15 1 -9 12 -15 15 -15 7 0 -11 -3 -11 -15 -1 -8 6 -18 9 -23 7
-4 -3 -14 -1 -22 4 -13 9 -13 10 0 8 8 -1 24 -1 35 0 15 1 17 4 7 10 -7 4 -25
6 -39 3 -18 -3 -24 -1 -19 7 11 16 58 13 86 -6 22 -16 23 -16 17 3 -7 18 -6
18 9 -1 15 -19 16 -19 12 -1 -2 15 -12 20 -43 22 -22 2 -62 5 -90 8 -27 3 -62
5 -77 6 -21 0 -28 5 -28 19 0 34 -12 51 -34 50 -20 0 -20 -1 3 -10z m130 -95
c14 -12 -19 -1 -35 12 -18 14 -18 14 6 3 14 -6 27 -13 29 -15z"/>
<path d="M3410 750 c0 -5 5 -10 10 -10 6 0 10 5 10 10 0 6 -4 10 -10 10 -5 0
-10 -4 -10 -10z"/>
<path d="M2075 710 c-3 -5 -4 -14 0 -19 3 -5 -5 -12 -17 -14 -14 -3 -11 -4 10
-4 23 1 32 6 32 19 0 20 -16 32 -25 18z"/>
<path d="M3129 688 c-1 -2 -2 -15 -3 -29 -1 -18 2 -25 11 -22 15 6 17 23 3 23
-5 0 -10 5 -10 10 0 6 14 10 30 10 17 0 30 -4 30 -10 0 -5 -6 -9 -12 -7 -7 1
-13 -5 -13 -13 0 -10 8 -14 25 -12 14 2 26 8 28 12 2 4 13 6 25 3 18 -4 19 -3
7 6 -13 9 -13 11 1 11 8 0 19 -4 25 -9 5 -6 16 -5 26 3 16 12 15 13 -10 14
-15 1 -57 4 -94 7 -38 3 -69 4 -69 3z"/>
<path d="M1945 670 c3 -5 8 -10 11 -10 2 0 4 5 4 10 0 6 -5 10 -11 10 -5 0 -7
-4 -4 -10z"/>
<path d="M3085 570 c-3 -5 -2 -10 4 -10 5 0 13 5 16 10 3 6 2 10 -4 10 -5 0
-13 -4 -16 -10z"/>
</g>
</svg>
